
<svg version="1.1" id="Layer_1" xmlns="http://www.w3.org/2000/svg" xmlns:xlink="http://www.w3.org/1999/xlink" x="0px" y="0px"
	 width="100%" viewBox="0 0 400 400" enable-background="new 0 0 400 400" xml:space="preserve">
<path fill="#449EFC" opacity="1.000000" stroke="none" 
	d="
M231.000000,1.000000 
	C245.354233,1.000000 259.708466,1.000000 274.526245,1.388066 
	C274.419556,3.657060 273.063843,5.711848 273.434052,7.384634 
	C274.353851,11.540401 272.048279,12.302725 268.998383,13.552440 
	C266.547333,14.556788 264.609406,16.813463 262.388611,18.557798 
	C263.716553,19.970491 264.644653,20.957829 266.068390,22.472439 
	C264.094330,23.172920 262.743439,23.640459 261.400879,24.130934 
	C257.626678,25.509741 254.348526,27.766554 253.804916,31.883806 
	C253.344742,35.369125 254.693314,39.348141 249.230591,39.828358 
	C248.931076,39.854691 248.448135,40.958370 248.516983,41.501442 
	C248.995514,45.275749 246.320694,45.843430 243.718735,47.289700 
	C241.481522,48.533226 238.977875,51.398998 238.798996,53.717720 
	C238.569901,56.687073 238.092270,57.815876 235.199112,58.278603 
	C233.110748,58.612617 231.398438,59.564449 233.095566,62.407505 
	C235.237915,65.996429 233.219437,69.414230 228.886154,69.880928 
	C227.465714,70.033905 226.014908,69.904999 224.380417,69.904999 
	C224.122299,71.670700 223.887787,73.274994 223.653275,74.879288 
	C223.229935,74.655327 222.806580,74.431366 222.383240,74.207405 
	C221.126221,75.965187 219.845200,77.706406 218.617340,79.484329 
	C216.331970,82.793510 217.470596,88.945732 210.550461,88.620522 
	C211.303192,90.109383 211.942032,91.372978 212.011215,91.509834 
	C211.133560,99.589020 203.250168,101.350082 200.666794,107.626205 
	C197.247253,112.624794 194.091354,117.429359 191.078720,122.322128 
	C187.269073,128.509338 183.576065,134.768356 179.467651,141.024231 
	C178.049271,142.138046 176.943008,143.178024 175.952255,144.318359 
	C172.577667,148.202438 172.064285,154.438507 165.647720,155.973572 
	C164.105835,156.342453 163.052673,159.314102 162.051392,161.233093 
	C160.940598,163.362000 160.405136,165.816055 159.153458,167.840622 
	C157.324860,170.798294 152.415085,172.050491 154.278748,177.060181 
	C154.405182,177.400024 153.359070,178.515610 152.675323,178.761337 
	C148.727524,180.180099 143.895996,180.691620 145.317688,186.940399 
	C145.343918,187.055695 144.850235,187.411102 144.567398,187.456467 
	C140.931900,188.039413 141.431641,195.709930 135.638840,192.705795 
	C135.549240,192.659317 134.796127,193.646347 134.526031,194.231125 
	C131.082642,201.686508 127.624100,209.135590 124.272224,216.632217 
	C122.727936,220.086121 121.171738,223.277481 116.560188,223.134247 
	C115.790726,223.110336 114.724945,223.914749 114.244514,224.635361 
	C109.021912,232.468918 103.787224,240.298187 98.770309,248.263702 
	C95.884850,252.845078 93.684479,257.873657 90.636932,262.332672 
	C87.754189,266.550598 82.606728,269.264648 82.323418,275.193726 
	C82.316849,275.331085 81.765213,275.442444 82.076027,275.313385 
	C80.026093,274.701538 77.972023,273.406555 77.041092,273.969360 
	C75.620064,274.828430 74.879936,276.922333 74.026192,278.582245 
	C73.070740,280.439850 72.444466,282.471558 71.439339,284.297852 
	C69.044624,288.648956 66.518219,292.927765 64.030640,297.227478 
	C62.835358,299.293488 61.943668,301.670441 60.321159,303.324524 
	C57.376541,306.326508 53.664581,308.606873 50.893890,311.737946 
	C48.902664,313.988159 47.976524,317.162720 46.468689,319.865448 
	C45.505157,321.592529 44.565784,323.422577 43.214859,324.818726 
	C41.878601,326.199707 40.038872,327.093536 38.689766,328.016479 
	C40.229252,333.202759 37.059765,336.355011 34.858318,339.656738 
	C33.131001,342.247314 30.915623,344.576141 28.630224,346.714722 
	C25.840273,349.325409 22.756241,351.622772 19.787386,354.040924 
	C18.579403,355.024841 16.641159,355.736572 16.228569,356.971008 
	C13.610592,364.803741 6.592671,370.310547 4.918091,378.668060 
	C4.717946,379.666962 2.358547,380.233215 0.999996,381.000000 
	C1.000000,361.312439 1.000000,341.624878 1.400565,321.469635 
	C3.602097,321.105042 5.403064,321.208130 7.824306,321.346741 
	C8.087278,317.675140 8.337152,314.186401 8.471072,312.316620 
	C11.977015,306.110168 15.165524,300.812012 20.658401,297.751129 
	C20.848759,297.645081 20.561529,296.803314 20.619373,296.319061 
	C21.093437,292.350281 22.906143,289.595734 27.162111,288.889862 
	C29.126656,288.564026 31.054842,287.994354 32.980942,287.467377 
	C35.555992,286.762817 36.354973,285.330048 35.511856,282.588379 
	C35.103729,281.261200 35.371014,279.091583 36.242363,278.116333 
	C39.877113,274.048096 42.532673,269.762177 42.322540,264.032410 
	C42.279877,262.869019 43.069962,260.953339 43.964344,260.591614 
	C51.052448,257.724976 52.503139,250.249893 56.862556,245.190414 
	C59.480431,242.152161 61.545288,238.768265 66.345398,238.827896 
	C67.581314,238.843231 69.251503,237.409164 69.996063,236.195465 
	C71.365547,233.963089 71.682770,230.941910 73.355446,229.067871 
	C77.139198,224.828659 82.892593,221.774551 85.232552,216.966965 
	C88.052513,211.173172 92.475380,207.474075 96.367935,202.900803 
	C100.312248,198.266708 101.418678,191.499924 107.112801,187.782074 
	C108.489380,186.883286 108.809433,184.318970 109.539871,182.490402 
	C110.372696,180.405487 110.816513,178.101685 111.962257,176.216965 
	C115.669579,170.118423 120.024849,164.383026 123.365356,158.100891 
	C126.711678,151.807816 131.920044,149.112610 137.418976,148.155930 
	C139.969604,142.285919 142.285522,136.976898 144.577667,131.657623 
	C144.906235,130.895126 144.960693,129.974457 145.412857,129.311813 
	C148.287109,125.099686 151.222549,120.928818 154.189804,116.781540 
	C154.437485,116.435341 155.058701,116.217789 155.523056,116.186256 
	C161.452850,115.783607 161.525467,111.082886 162.687180,106.906647 
	C163.549789,103.805672 164.610138,100.400742 166.658493,98.081688 
	C169.084610,95.334953 173.062668,93.993820 175.641647,91.338043 
	C178.531601,88.362038 180.644012,84.620872 183.015808,81.158554 
	C183.652863,80.228615 183.907791,79.043892 184.500061,78.075119 
	C187.742416,72.771790 190.783905,67.319321 194.395309,62.276848 
	C196.980240,58.667625 200.351974,55.621899 203.447647,52.242882 
	C200.331726,50.410545 203.283447,49.295547 205.463287,48.315769 
	C208.947464,46.749752 211.650375,44.968582 210.109131,40.430531 
	C209.842163,39.644417 210.427704,38.568768 210.582718,37.807346 
	C212.601929,37.495041 215.483368,37.726475 215.850769,36.874180 
	C217.362274,33.367737 218.328613,29.574341 219.059357,25.801998 
	C219.527039,23.387669 219.616013,20.759392 219.199615,18.343384 
	C218.305405,13.155086 222.612732,15.280799 224.603577,14.164876 
	C224.882935,14.008279 225.039474,13.627254 225.320862,13.480351 
	C230.466309,10.794106 230.240738,5.674145 231.000000,1.000000 
z"/>
<path fill="#40A6FD" opacity="1.000000" stroke="none" 
	d="
M230.531342,1.000000 
	C230.240738,5.674145 230.466309,10.794106 225.320862,13.480351 
	C225.039474,13.627254 224.882935,14.008279 224.603577,14.164876 
	C222.612732,15.280799 218.305405,13.155086 219.199615,18.343384 
	C219.616013,20.759392 219.527039,23.387669 219.059357,25.801998 
	C218.328613,29.574341 217.362274,33.367737 215.850769,36.874180 
	C215.483368,37.726475 212.601929,37.495041 210.582718,37.807346 
	C210.427704,38.568768 209.842163,39.644417 210.109131,40.430531 
	C211.650375,44.968582 208.947464,46.749752 205.463287,48.315769 
	C203.283447,49.295547 200.331726,50.410545 203.447647,52.242882 
	C200.351974,55.621899 196.980240,58.667625 194.395309,62.276848 
	C190.783905,67.319321 187.742416,72.771790 184.500061,78.075119 
	C183.907791,79.043892 183.652863,80.228615 183.015808,81.158554 
	C180.644012,84.620872 178.531601,88.362038 175.641647,91.338043 
	C173.062668,93.993820 169.084610,95.334953 166.658493,98.081688 
	C164.610138,100.400742 163.549789,103.805672 162.687180,106.906647 
	C161.525467,111.082886 161.452850,115.783607 155.523056,116.186256 
	C155.058701,116.217789 154.437485,116.435341 154.189804,116.781540 
	C151.222549,120.928818 148.287109,125.099686 145.412857,129.311813 
	C144.960693,129.974457 144.906235,130.895126 144.577667,131.657623 
	C142.285522,136.976898 139.969604,142.285919 137.418976,148.155930 
	C131.920044,149.112610 126.711678,151.807816 123.365356,158.100891 
	C120.024849,164.383026 115.669579,170.118423 111.962257,176.216965 
	C110.816513,178.101685 110.372696,180.405487 109.539871,182.490402 
	C108.809433,184.318970 108.489380,186.883286 107.112801,187.782074 
	C101.418678,191.499924 100.312248,198.266708 96.367935,202.900803 
	C92.475380,207.474075 88.052513,211.173172 85.232552,216.966965 
	C82.892593,221.774551 77.139198,224.828659 73.355446,229.067871 
	C71.682770,230.941910 71.365547,233.963089 69.996063,236.195465 
	C69.251503,237.409164 67.581314,238.843231 66.345398,238.827896 
	C61.545288,238.768265 59.480431,242.152161 56.862556,245.190414 
	C52.503139,250.249893 51.052448,257.724976 43.964344,260.591614 
	C43.069962,260.953339 42.279877,262.869019 42.322540,264.032410 
	C42.532673,269.762177 39.877113,274.048096 36.242363,278.116333 
	C35.371014,279.091583 35.103729,281.261200 35.511856,282.588379 
	C36.354973,285.330048 35.555992,286.762817 32.980942,287.467377 
	C31.054842,287.994354 29.126656,288.564026 27.162111,288.889862 
	C22.906143,289.595734 21.093437,292.350281 20.619373,296.319061 
	C20.561529,296.803314 20.848759,297.645081 20.658401,297.751129 
	C15.165524,300.812012 11.977015,306.110168 8.471072,312.316620 
	C8.337152,314.186401 8.087278,317.675140 7.824306,321.346741 
	C5.403064,321.208130 3.602097,321.105042 1.400565,321.000977 
	C1.000000,298.645782 1.000000,276.291534 1.410843,253.468399 
	C6.139459,253.816299 7.440365,250.799896 8.891733,247.681229 
	C9.755964,245.824173 10.810831,243.661270 12.417748,242.621094 
	C16.628916,239.895142 19.440535,236.458908 20.545910,231.528168 
	C21.080982,229.141403 27.402958,225.617950 30.247719,226.170837 
	C31.519890,225.147018 32.754005,224.069656 33.515961,222.724777 
	C34.536106,220.924194 35.190525,218.916382 36.284882,217.113953 
	C37.380165,216.486908 38.192551,215.743469 39.290878,214.828979 
	C42.471912,211.713333 46.728981,209.218277 47.889797,205.701248 
	C49.119694,201.974930 50.629021,200.671768 53.579578,200.676987 
	C54.477859,198.023209 54.949390,195.606918 56.068039,193.541031 
	C58.311890,189.397156 62.463406,186.944138 63.986267,181.658157 
	C65.453026,176.566910 70.517448,172.512100 74.338593,167.933960 
	C78.014473,163.669189 81.348701,159.468994 84.692787,155.276672 
	C87.514214,151.739594 88.305275,146.317093 93.899490,145.352036 
	C93.638168,143.948486 93.650909,142.410660 93.045746,141.175583 
	C92.299156,139.651886 91.038506,138.380051 90.331787,137.052032 
	C96.172859,137.213638 100.421234,130.859894 100.034081,123.917694 
	C99.904114,121.587326 100.838463,118.995743 101.925148,116.846542 
	C103.567268,113.598808 105.769310,110.634178 108.059540,107.036980 
	C110.908806,108.083855 115.548676,107.626060 116.559647,103.311813 
	C117.896515,97.606842 120.642227,93.221710 123.940025,88.642899 
	C126.641151,84.892525 128.444946,83.629753 130.638123,87.386177 
	C132.512939,83.533501 134.134583,79.440910 136.416321,75.757187 
	C138.182388,72.905968 140.774506,70.566414 143.362213,67.971573 
	C150.411392,64.272682 156.871628,60.706123 159.682892,52.605976 
	C161.416351,47.611336 164.942596,43.238903 167.090118,39.567993 
	C169.186310,37.890591 170.918182,37.035622 171.863403,35.645691 
	C174.385330,31.937233 176.569077,27.998796 179.232071,23.579521 
	C179.126022,23.357559 178.562653,22.178455 177.999634,20.999676 
	C178.000000,21.000000 177.999390,20.999338 178.294327,20.917795 
	C179.059311,20.223965 179.529358,19.611675 179.999695,18.999693 
	C180.000000,19.000000 179.999390,18.999237 180.382736,19.004217 
	C184.934723,19.896824 188.553833,20.199802 187.676758,13.958015 
	C187.521423,12.852429 188.621918,11.543674 189.214386,10.364877 
	C190.788620,7.232707 192.402115,4.120279 194.000000,0.999999 
	C206.020889,1.000000 218.041794,1.000000 230.531342,1.000000 
z"/>
<path fill="#5A72F7" opacity="1.000000" stroke="none" 
	d="
M216.000000,401.000000 
	C199.645767,401.000000 183.291550,401.000000 166.701965,400.738770 
	C168.294937,398.743866 171.546494,397.109619 171.675934,395.257233 
	C172.019135,390.345825 175.587631,389.073944 178.450500,386.395508 
	C182.193192,382.893951 186.316452,378.328857 187.197357,373.642578 
	C188.121277,368.727570 190.654648,366.610687 193.937378,364.211029 
	C195.329910,363.193115 196.648026,362.073395 198.406158,361.000488 
	C204.315384,360.732971 206.776382,357.416687 208.220108,352.337616 
	C209.675674,347.216919 212.234024,342.026611 215.630371,337.974060 
	C217.930328,335.229706 219.421356,333.360413 218.018860,329.638062 
	C220.027588,326.516144 221.645370,323.359161 224.081787,321.075592 
	C229.844238,315.674744 237.387161,311.912170 239.133621,303.077972 
	C239.383011,301.816467 240.826950,300.573792 242.017456,299.760925 
	C244.493439,298.070221 246.509033,296.468323 245.437332,292.919586 
	C245.235931,292.252625 246.635666,290.876923 247.550812,290.147125 
	C249.207520,288.825928 251.385483,288.041992 252.765320,286.510681 
	C257.975006,280.728973 260.644531,273.199921 265.639252,267.224670 
	C265.919312,266.889679 265.201752,265.720825 265.303314,264.722748 
	C267.629303,264.343811 269.597717,264.119598 271.572235,264.032379 
	C277.346771,263.777252 283.123688,263.576691 289.209595,263.115723 
	C289.680664,260.877777 290.597656,258.527649 289.862305,256.945374 
	C287.598236,252.073654 284.702393,247.495529 282.120667,242.479340 
	C282.632996,241.464935 282.915741,240.520233 283.544556,240.122116 
	C293.452484,233.848923 297.349792,222.903595 303.301758,213.732742 
	C305.522552,210.310944 307.887482,208.352386 310.955688,207.957809 
	C316.755219,207.211975 318.522369,201.960968 319.443024,198.685135 
	C320.981781,193.209702 322.173615,187.923645 325.881592,183.465302 
	C326.270691,182.997452 326.628510,182.172928 326.489838,181.649124 
	C325.357483,177.371140 327.950043,175.985138 330.701965,175.535370 
	C331.643036,173.263779 332.030182,171.293045 333.130554,169.876312 
	C335.921722,166.282776 341.856171,165.300415 341.855255,159.267380 
	C341.855194,158.848602 343.503357,158.452927 344.363129,158.004562 
	C345.359955,157.484711 346.722809,157.165863 347.251740,156.331741 
	C350.414795,151.343353 357.449554,149.146927 357.622223,141.999207 
	C357.632507,141.574768 358.050995,141.072845 358.411102,140.757004 
	C366.922302,133.292313 371.548767,123.125282 377.070221,113.621986 
	C378.644562,110.912216 379.456726,107.588531 379.913116,104.444000 
	C380.471832,100.594116 381.729553,98.703491 386.042450,99.346779 
	C387.427307,99.553329 389.494904,98.263237 390.548859,97.049141 
	C394.199188,92.844063 397.540863,88.371056 401.000000,84.000008 
	C401.000000,108.020897 401.000000,132.041794 400.599152,156.536530 
	C397.321320,156.868027 394.394684,156.358368 391.588165,156.737549 
	C390.175842,156.928375 388.598724,158.511520 387.807953,159.877197 
	C387.157745,161.000137 387.558014,162.731323 387.492706,164.192917 
	C382.502838,168.048050 378.288269,172.494598 374.363159,177.183472 
	C373.566864,178.134720 374.022003,180.046967 373.615326,181.432587 
	C373.096924,183.198837 372.471222,184.985519 371.555603,186.569031 
	C370.588379,188.241760 369.289368,189.740433 368.021881,191.217850 
	C365.814270,193.791122 363.389954,196.188538 361.307831,198.855850 
	C359.961243,200.580887 358.472534,202.538956 358.067810,204.593582 
	C356.599976,212.045181 351.328125,217.161469 345.947571,221.003830 
	C340.303986,225.034058 336.353363,229.702850 333.137421,235.521713 
	C331.884003,237.789612 330.009186,239.721497 328.362335,241.762009 
	C327.227722,243.167847 325.641449,244.323227 324.876282,245.892487 
	C322.237152,251.305038 319.904419,256.866089 317.382904,262.337311 
	C316.283417,264.723053 315.592651,268.272400 313.712830,269.154236 
	C305.608795,272.955780 303.661652,283.035797 295.363464,286.465607 
	C294.625000,286.770874 294.287506,288.434998 294.062775,289.529388 
	C292.901733,295.183716 294.021057,302.092682 285.915802,303.804352 
	C285.510071,303.890045 285.202698,304.472534 284.863251,304.836517 
	C281.815704,308.104431 279.292480,312.275879 275.593628,314.416534 
	C271.002350,317.073578 270.349487,320.642090 269.865448,325.074493 
	C269.614258,327.374512 268.511261,331.333344 267.355377,331.499573 
	C259.612823,332.613190 260.216766,336.933197 262.382446,342.276672 
	C262.481384,342.520782 262.252777,342.897644 262.119232,343.450684 
	C257.980927,344.500061 253.797867,345.794495 254.152817,351.375977 
	C243.090408,354.346558 240.926178,356.928802 242.980362,362.324646 
	C240.068192,368.086060 237.762695,372.889923 235.214005,377.561096 
	C234.291626,379.251587 233.083649,381.209595 231.485870,382.019562 
	C228.223938,383.673218 225.727692,385.415527 225.175568,389.423492 
	C225.050720,390.329773 222.694626,390.909760 221.387833,391.677795 
	C220.227097,392.360016 218.537445,392.837738 218.068527,393.859039 
	C217.045807,396.086334 216.651230,398.602112 216.000000,401.000000 
z"/>
<path fill="#36BBFF" opacity="1.000000" stroke="none" 
	d="
M1.000000,192.000000 
	C1.000000,128.418839 1.000000,64.837692 1.000000,1.000000 
	C45.687233,1.000000 90.374962,1.000000 135.501709,1.366970 
	C134.826721,3.085836 133.755524,4.476349 132.583099,5.775524 
	C131.849976,6.587895 130.500153,7.120358 130.223587,8.022589 
	C128.593704,13.339937 127.160332,18.719055 125.732780,24.096485 
	C124.084099,30.306929 118.611954,33.548641 113.665062,30.151848 
	C113.218628,32.268085 113.124451,34.186966 112.398811,35.826340 
	C111.155701,38.634792 109.852715,43.296986 107.984337,43.605591 
	C101.685997,44.645893 99.479881,49.958580 95.460747,53.311691 
	C94.214325,54.351562 92.730263,55.107433 91.489403,56.152843 
	C90.699242,56.818550 89.970840,57.690273 89.532684,58.619537 
	C86.712845,64.600044 84.040802,70.650528 81.196938,76.619286 
	C79.546356,80.083542 77.794151,83.515060 75.824356,86.803581 
	C75.064476,88.072197 73.736160,89.246941 72.391548,89.876701 
	C66.014435,92.863510 61.373596,103.060631 63.184750,109.598419 
	C63.504723,110.753426 61.995975,112.641853 60.970276,113.895981 
	C58.786289,116.566360 56.050934,118.828094 54.121014,121.653168 
	C51.754658,125.117119 50.387821,129.302170 47.833702,132.588593 
	C45.377518,135.748978 41.957638,138.160416 38.786797,141.060471 
	C30.962708,138.408051 27.990828,140.126053 25.746103,148.650879 
	C25.361572,150.111206 24.156225,152.317398 23.087217,152.469254 
	C18.418810,153.132309 18.208416,156.625549 18.130360,159.846191 
	C18.046371,163.311554 17.211880,165.882690 14.099551,167.792175 
	C13.190696,168.349792 12.569296,170.399765 12.784982,171.590149 
	C13.745204,176.889725 12.725263,181.313019 8.643298,185.110046 
	C6.754177,186.867279 5.606403,189.399384 3.871981,191.358368 
	C3.345164,191.953400 1.980770,191.806885 1.000000,192.000000 
z"/>
<path fill="#3CB1FE" opacity="1.000000" stroke="none" 
	d="
M1.000000,192.468658 
	C1.980770,191.806885 3.345164,191.953400 3.871981,191.358368 
	C5.606403,189.399384 6.754177,186.867279 8.643298,185.110046 
	C12.725263,181.313019 13.745204,176.889725 12.784982,171.590149 
	C12.569296,170.399765 13.190696,168.349792 14.099551,167.792175 
	C17.211880,165.882690 18.046371,163.311554 18.130360,159.846191 
	C18.208416,156.625549 18.418810,153.132309 23.087217,152.469254 
	C24.156225,152.317398 25.361572,150.111206 25.746103,148.650879 
	C27.990828,140.126053 30.962708,138.408051 38.786797,141.060471 
	C41.957638,138.160416 45.377518,135.748978 47.833702,132.588593 
	C50.387821,129.302170 51.754658,125.117119 54.121014,121.653168 
	C56.050934,118.828094 58.786289,116.566360 60.970276,113.895981 
	C61.995975,112.641853 63.504723,110.753426 63.184750,109.598419 
	C61.373596,103.060631 66.014435,92.863510 72.391548,89.876701 
	C73.736160,89.246941 75.064476,88.072197 75.824356,86.803581 
	C77.794151,83.515060 79.546356,80.083542 81.196938,76.619286 
	C84.040802,70.650528 86.712845,64.600044 89.532684,58.619537 
	C89.970840,57.690273 90.699242,56.818550 91.489403,56.152843 
	C92.730263,55.107433 94.214325,54.351562 95.460747,53.311691 
	C99.479881,49.958580 101.685997,44.645893 107.984337,43.605591 
	C109.852715,43.296986 111.155701,38.634792 112.398811,35.826340 
	C113.124451,34.186966 113.218628,32.268085 113.665062,30.151848 
	C118.611954,33.548641 124.084099,30.306929 125.732780,24.096485 
	C127.160332,18.719055 128.593704,13.339937 130.223587,8.022589 
	C130.500153,7.120358 131.849976,6.587895 132.583099,5.775524 
	C133.755524,4.476349 134.826721,3.085836 135.970367,1.366970 
	C151.354233,1.000000 166.708450,1.000000 182.536530,1.394616 
	C183.081604,2.444312 182.948181,3.222540 183.256516,3.734935 
	C185.671188,7.747699 185.369873,11.012239 181.407883,14.058777 
	C180.317047,14.897562 180.435715,17.309269 179.999390,18.999237 
	C179.999390,18.999237 180.000000,19.000000 179.704834,19.081310 
	C178.939575,19.774860 178.469482,20.387100 177.999390,20.999340 
	C177.999390,20.999338 178.000000,21.000000 177.660187,21.073601 
	C173.044739,25.122150 168.747665,29.074381 164.499924,33.078941 
	C160.840530,36.528843 161.808304,43.459209 155.564178,45.030838 
	C155.305756,45.095882 155.245972,45.911560 155.075577,46.370831 
	C152.551056,53.175533 150.794144,60.398167 144.339722,64.985817 
	C143.568558,65.533943 143.430771,66.973190 142.999390,67.999390 
	C140.774506,70.566414 138.182388,72.905968 136.416321,75.757187 
	C134.134583,79.440910 132.512939,83.533501 130.638123,87.386177 
	C128.444946,83.629753 126.641151,84.892525 123.940025,88.642899 
	C120.642227,93.221710 117.896515,97.606842 116.559647,103.311813 
	C115.548676,107.626060 110.908806,108.083855 108.059540,107.036980 
	C105.769310,110.634178 103.567268,113.598808 101.925148,116.846542 
	C100.838463,118.995743 99.904114,121.587326 100.034081,123.917694 
	C100.421234,130.859894 96.172859,137.213638 90.227127,136.746246 
	C88.903244,136.583618 88.015800,136.779434 87.128349,136.975235 
	C88.704048,141.122101 84.895836,142.421982 83.102875,144.884750 
	C80.348526,148.668076 77.948494,152.712662 75.486237,156.700775 
	C75.205887,157.154861 75.233948,158.162964 75.555397,158.566681 
	C77.844032,161.440903 75.168121,163.021698 73.657074,165.146286 
	C68.045998,166.173279 64.046219,168.488388 62.612705,174.129074 
	C62.316227,175.295670 60.894642,176.129913 60.280228,177.272537 
	C59.254978,179.179214 58.051407,181.133652 57.660789,183.206985 
	C56.925869,187.107803 55.498276,190.014954 51.290245,191.115280 
	C50.212505,191.397095 48.527000,193.096497 48.688763,193.765472 
	C49.690586,197.908707 46.714336,198.092468 44.184982,198.683990 
	C42.359776,199.110840 40.473610,199.277069 38.008587,199.651611 
	C39.517498,201.683578 40.533260,203.051453 41.260277,204.030487 
	C38.306751,207.593170 35.651604,210.795944 32.707848,214.189484 
	C28.831879,217.673721 28.878038,221.723969 29.999407,225.998169 
	C27.402958,225.617950 21.080982,229.141403 20.545910,231.528168 
	C19.440535,236.458908 16.628916,239.895142 12.417748,242.621094 
	C10.810831,243.661270 9.755964,245.824173 8.891733,247.681229 
	C7.440365,250.799896 6.139459,253.816299 1.410843,252.999741 
	C1.000000,232.979111 1.000000,212.958206 1.000000,192.468658 
z"/>
<path fill="#5E69F6" opacity="1.000000" stroke="none" 
	d="
M216.468658,401.000000 
	C216.651230,398.602112 217.045807,396.086334 218.068527,393.859039 
	C218.537445,392.837738 220.227097,392.360016 221.387833,391.677795 
	C222.694626,390.909760 225.050720,390.329773 225.175568,389.423492 
	C225.727692,385.415527 228.223938,383.673218 231.485870,382.019562 
	C233.083649,381.209595 234.291626,379.251587 235.214005,377.561096 
	C237.762695,372.889923 240.068192,368.086060 242.980362,362.324646 
	C240.926178,356.928802 243.090408,354.346558 254.152817,351.375977 
	C253.797867,345.794495 257.980927,344.500061 262.119232,343.450684 
	C262.252777,342.897644 262.481384,342.520782 262.382446,342.276672 
	C260.216766,336.933197 259.612823,332.613190 267.355377,331.499573 
	C268.511261,331.333344 269.614258,327.374512 269.865448,325.074493 
	C270.349487,320.642090 271.002350,317.073578 275.593628,314.416534 
	C279.292480,312.275879 281.815704,308.104431 284.863251,304.836517 
	C285.202698,304.472534 285.510071,303.890045 285.915802,303.804352 
	C294.021057,302.092682 292.901733,295.183716 294.062775,289.529388 
	C294.287506,288.434998 294.625000,286.770874 295.363464,286.465607 
	C303.661652,283.035797 305.608795,272.955780 313.712830,269.154236 
	C315.592651,268.272400 316.283417,264.723053 317.382904,262.337311 
	C319.904419,256.866089 322.237152,251.305038 324.876282,245.892487 
	C325.641449,244.323227 327.227722,243.167847 328.362335,241.762009 
	C330.009186,239.721497 331.884003,237.789612 333.137421,235.521713 
	C336.353363,229.702850 340.303986,225.034058 345.947571,221.003830 
	C351.328125,217.161469 356.599976,212.045181 358.067810,204.593582 
	C358.472534,202.538956 359.961243,200.580887 361.307831,198.855850 
	C363.389954,196.188538 365.814270,193.791122 368.021881,191.217850 
	C369.289368,189.740433 370.588379,188.241760 371.555603,186.569031 
	C372.471222,184.985519 373.096924,183.198837 373.615326,181.432587 
	C374.022003,180.046967 373.566864,178.134720 374.363159,177.183472 
	C378.288269,172.494598 382.502838,168.048050 387.492706,164.192917 
	C387.558014,162.731323 387.157745,161.000137 387.807953,159.877197 
	C388.598724,158.511520 390.175842,156.928375 391.588165,156.737549 
	C394.394684,156.358368 397.321320,156.868027 400.599152,157.005188 
	C401.000000,173.687561 401.000000,190.375122 400.693787,207.549530 
	C399.871002,208.303391 399.354370,208.570389 398.837769,208.837402 
	C399.558502,209.224930 400.279266,209.612473 401.000000,210.000000 
	C401.000000,211.388885 401.000000,212.777786 400.607910,214.559723 
	C393.958771,213.694458 392.655060,215.432907 394.059418,223.162155 
	C386.434296,223.400665 386.113983,223.725494 385.462921,230.859985 
	C383.245392,232.970825 381.565277,235.413528 379.876160,237.850021 
	C379.423767,238.502640 378.905212,239.111862 378.482941,239.782501 
	C374.071503,246.788666 369.336700,253.623550 365.448456,260.909851 
	C364.022339,263.582306 363.920715,266.025146 360.194580,263.906006 
	C359.334534,263.416901 358.042603,263.687225 356.949402,263.608093 
	C357.005615,264.798126 356.719452,266.146179 357.182098,267.148651 
	C358.581909,270.181854 357.319122,271.470062 354.491760,272.111755 
	C353.197723,272.405426 351.939301,272.860657 350.671295,273.263397 
	C345.051025,275.048309 344.886200,275.554321 348.315033,280.564209 
	C344.305298,285.595581 341.906891,292.484985 333.993225,292.872375 
	C333.310699,295.997620 332.137939,298.985168 332.142365,301.971008 
	C332.147461,305.435608 330.683990,306.924896 327.768311,308.260529 
	C326.043030,309.050873 324.888672,311.099060 323.496521,312.599182 
	C322.961151,313.176056 322.580750,314.176117 321.955658,314.347107 
	C315.712952,316.054840 314.864594,322.364746 311.667358,326.568970 
	C307.782440,331.677460 305.062714,337.663513 301.269440,342.853760 
	C299.257599,345.606537 296.427826,347.511932 296.633453,351.584137 
	C296.690521,352.714020 294.390930,353.929413 293.231567,355.161133 
	C290.829285,357.713379 287.197510,359.960632 286.389069,362.958374 
	C285.215790,367.308777 284.284698,369.816925 279.193848,367.454987 
	C278.499878,369.388824 277.308655,371.022614 277.512726,372.457977 
	C278.109192,376.652924 276.158447,379.096466 273.135468,381.566376 
	C271.275360,383.086182 269.065521,385.659821 269.106110,387.718994 
	C269.193542,392.152954 267.395050,394.333557 263.442841,394.806702 
	C259.539368,395.274017 257.744843,397.114136 258.000000,401.000000 
	C244.312439,401.000000 230.624878,401.000000 216.468658,401.000000 
z"/>
<path fill="#557CF8" opacity="1.000000" stroke="none" 
	d="
M401.000000,83.531349 
	C397.540863,88.371056 394.199188,92.844063 390.548859,97.049141 
	C389.494904,98.263237 387.427307,99.553329 386.042450,99.346779 
	C381.729553,98.703491 380.471832,100.594116 379.913116,104.444000 
	C379.456726,107.588531 378.644562,110.912216 377.070221,113.621986 
	C371.548767,123.125282 366.922302,133.292313 358.411102,140.757004 
	C358.050995,141.072845 357.632507,141.574768 357.622223,141.999207 
	C357.449554,149.146927 350.414795,151.343353 347.251740,156.331741 
	C346.722809,157.165863 345.359955,157.484711 344.363129,158.004562 
	C343.503357,158.452927 341.855194,158.848602 341.855255,159.267380 
	C341.856171,165.300415 335.921722,166.282776 333.130554,169.876312 
	C332.030182,171.293045 331.643036,173.263779 330.701965,175.535370 
	C327.950043,175.985138 325.357483,177.371140 326.489838,181.649124 
	C326.628510,182.172928 326.270691,182.997452 325.881592,183.465302 
	C322.173615,187.923645 320.981781,193.209702 319.443024,198.685135 
	C318.522369,201.960968 316.755219,207.211975 310.955688,207.957809 
	C307.887482,208.352386 305.522552,210.310944 303.301758,213.732742 
	C297.349792,222.903595 293.452484,233.848923 283.544556,240.122116 
	C282.915741,240.520233 282.632996,241.464935 281.832764,242.309204 
	C279.459503,238.852692 277.289185,235.317795 275.467102,231.611694 
	C273.462616,227.534592 270.360321,225.900864 265.896240,225.956345 
	C257.941620,226.055252 249.983688,225.889343 242.213394,225.552460 
	C243.645142,223.788422 244.651276,221.393356 246.180374,220.992355 
	C251.060150,219.712662 251.926285,216.327103 252.421570,212.102783 
	C254.136002,212.027283 255.422928,211.976608 256.707764,212.008804 
	C260.937866,212.114807 262.056488,209.994522 261.058594,205.868439 
	C263.862579,197.675583 266.852905,190.046310 273.826111,184.816528 
	C274.236877,184.508453 274.446136,183.631332 274.392578,183.051956 
	C273.960541,178.377365 276.796448,176.309982 280.556122,174.556747 
	C284.486755,172.723785 288.980560,170.476883 288.762695,165.506851 
	C288.540222,160.431305 291.190277,157.525345 294.299683,154.556992 
	C296.441742,152.512085 298.741547,150.632446 301.129639,148.539795 
	C302.141357,149.134918 303.208374,149.762573 304.896057,150.755295 
	C306.673248,145.034225 309.212097,139.844711 309.755920,134.453934 
	C310.718567,124.912605 317.559448,120.750221 324.409912,115.309036 
	C323.042511,112.295280 325.068237,110.509308 328.034607,108.426773 
	C331.031097,106.323097 334.931366,103.192596 335.290436,100.141777 
	C335.977753,94.301758 340.239777,91.223587 342.271698,86.502701 
	C344.034576,87.422760 345.384003,88.127022 347.355896,89.156151 
	C345.685364,83.598679 346.985260,78.512161 350.587128,76.115044 
	C354.915985,73.234062 356.792419,69.843750 358.229004,65.270409 
	C359.227448,62.091866 360.029816,57.571301 364.596619,58.858349 
	C367.422607,53.734962 369.301666,48.102432 373.003448,44.198071 
	C377.327850,39.637005 379.038055,33.279594 385.253082,29.732542 
	C389.247467,27.452866 391.058075,21.228458 393.656586,16.663528 
	C395.353180,13.683027 396.884521,10.735180 401.000000,11.000000 
	C401.000000,35.020893 401.000000,59.041790 401.000000,83.531349 
z"/>
<path fill="#5085F9" opacity="1.000000" stroke="none" 
	d="
M401.000000,10.513435 
	C396.884521,10.735180 395.353180,13.683027 393.656586,16.663528 
	C391.058075,21.228458 389.247467,27.452866 385.253082,29.732542 
	C379.038055,33.279594 377.327850,39.637005 373.003448,44.198071 
	C369.301666,48.102432 367.422607,53.734962 364.596619,58.858349 
	C360.029816,57.571301 359.227448,62.091866 358.229004,65.270409 
	C356.792419,69.843750 354.915985,73.234062 350.587128,76.115044 
	C346.985260,78.512161 345.685364,83.598679 347.355896,89.156151 
	C345.384003,88.127022 344.034576,87.422760 342.271698,86.502701 
	C340.239777,91.223587 335.977753,94.301758 335.290436,100.141777 
	C334.931366,103.192596 331.031097,106.323097 328.034607,108.426773 
	C325.068237,110.509308 323.042511,112.295280 324.409912,115.309036 
	C317.559448,120.750221 310.718567,124.912605 309.755920,134.453934 
	C309.212097,139.844711 306.673248,145.034225 304.896057,150.755295 
	C303.208374,149.762573 302.141357,149.134918 301.129639,148.539795 
	C298.741547,150.632446 296.441742,152.512085 294.299683,154.556992 
	C291.190277,157.525345 288.540222,160.431305 288.762695,165.506851 
	C288.980560,170.476883 284.486755,172.723785 280.556122,174.556747 
	C276.796448,176.309982 273.960541,178.377365 274.392578,183.051956 
	C274.446136,183.631332 274.236877,184.508453 273.826111,184.816528 
	C266.852905,190.046310 263.862579,197.675583 260.765991,205.682678 
	C252.988754,193.238190 245.657990,180.632156 238.755280,167.992188 
	C240.118057,166.658707 241.730164,165.415466 241.843826,164.047699 
	C242.067337,161.358215 242.492767,159.465958 245.260788,158.107574 
	C247.044495,157.232224 248.137787,154.999344 249.629837,153.461563 
	C250.494965,152.569885 251.479767,151.264908 252.510315,151.164108 
	C255.406860,150.880753 255.848877,149.261017 256.082550,146.806839 
	C256.642731,140.923569 259.043427,136.625870 264.654907,133.299500 
	C268.081055,131.268555 269.627411,126.059380 272.004272,122.269028 
	C272.898163,120.843521 273.574036,119.238426 274.660187,117.984520 
	C277.652802,114.529648 281.221100,111.502205 283.801453,107.778816 
	C287.319550,102.702240 289.981964,97.040527 293.323608,91.830017 
	C294.691193,89.697571 296.704742,86.756836 298.720367,86.499207 
	C304.073914,85.814919 304.471527,82.518433 304.717224,78.485512 
	C304.774048,77.552605 305.509521,76.561279 306.154816,75.780388 
	C309.945770,71.192772 314.209503,66.934853 317.525970,62.032780 
	C321.045837,56.830013 323.637177,51.004436 326.761810,45.523705 
	C327.294739,44.588856 328.368866,43.586212 329.364380,43.355919 
	C333.902374,42.306149 334.623413,38.415207 335.987854,34.970806 
	C336.404785,33.918365 336.511322,32.642780 337.181396,31.807320 
	C341.095276,26.927116 345.350983,22.307928 349.071564,17.289461 
	C352.961304,12.042717 356.377045,6.444545 360.000000,1.000003 
	C373.666748,1.000000 387.333496,1.000000 401.000000,1.000000 
	C401.000000,4.083084 401.000000,7.054977 401.000000,10.513435 
M282.604553,169.120010 
	C282.844269,169.140289 283.083984,169.160568 283.323700,169.180847 
	C283.327484,169.045074 283.331268,168.909302 283.335022,168.773544 
	C283.094330,168.782318 282.853668,168.791092 282.604553,169.120010 
z"/>
<path fill="#6260F5" opacity="1.000000" stroke="none" 
	d="
M258.468658,401.000000 
	C257.744843,397.114136 259.539368,395.274017 263.442841,394.806702 
	C267.395050,394.333557 269.193542,392.152954 269.106110,387.718994 
	C269.065521,385.659821 271.275360,383.086182 273.135468,381.566376 
	C276.158447,379.096466 278.109192,376.652924 277.512726,372.457977 
	C277.308655,371.022614 278.499878,369.388824 279.193848,367.454987 
	C284.284698,369.816925 285.215790,367.308777 286.389069,362.958374 
	C287.197510,359.960632 290.829285,357.713379 293.231567,355.161133 
	C294.390930,353.929413 296.690521,352.714020 296.633453,351.584137 
	C296.427826,347.511932 299.257599,345.606537 301.269440,342.853760 
	C305.062714,337.663513 307.782440,331.677460 311.667358,326.568970 
	C314.864594,322.364746 315.712952,316.054840 321.955658,314.347107 
	C322.580750,314.176117 322.961151,313.176056 323.496521,312.599182 
	C324.888672,311.099060 326.043030,309.050873 327.768311,308.260529 
	C330.683990,306.924896 332.147461,305.435608 332.142365,301.971008 
	C332.137939,298.985168 333.310699,295.997620 333.993225,292.872375 
	C341.906891,292.484985 344.305298,285.595581 348.315033,280.564209 
	C344.886200,275.554321 345.051025,275.048309 350.671295,273.263397 
	C351.939301,272.860657 353.197723,272.405426 354.491760,272.111755 
	C357.319122,271.470062 358.581909,270.181854 357.182098,267.148651 
	C356.719452,266.146179 357.005615,264.798126 356.949402,263.608093 
	C358.042603,263.687225 359.334534,263.416901 360.194580,263.906006 
	C363.920715,266.025146 364.022339,263.582306 365.448456,260.909851 
	C369.336700,253.623550 374.071503,246.788666 378.482941,239.782501 
	C378.905212,239.111862 379.423767,238.502640 379.876160,237.850021 
	C381.565277,235.413528 383.245392,232.970825 385.462921,230.859985 
	C386.113983,223.725494 386.434296,223.400665 394.059418,223.162155 
	C392.655060,215.432907 393.958771,213.694458 400.607910,214.976379 
	C401.000000,235.354233 401.000000,255.708450 400.708923,276.724030 
	C396.439819,281.890869 392.496277,286.427368 388.474030,290.892975 
	C384.582062,295.213928 380.612244,299.462982 383.824249,305.969086 
	C379.971375,308.415771 374.622681,309.953979 373.342590,313.131348 
	C371.975891,316.523651 374.450958,321.463654 375.048004,324.654266 
	C371.317383,328.977417 366.537567,332.299164 365.107635,336.707520 
	C363.101868,342.891327 358.980835,346.165100 354.083679,349.467957 
	C354.551025,350.936859 354.982513,352.293152 355.472473,353.833282 
	C349.334869,355.343445 343.440399,356.793793 338.887238,357.914093 
	C335.352600,362.949188 342.568878,367.172516 337.440308,370.968536 
	C334.111572,373.432404 330.620789,375.677399 326.311188,378.631561 
	C326.504517,382.942230 323.757935,386.422791 317.993927,387.669708 
	C316.875305,387.911652 315.248901,389.192657 315.138977,390.142731 
	C314.570923,395.051880 310.790344,397.668091 308.000000,401.000000 
	C291.645782,401.000000 275.291534,401.000000 258.468658,401.000000 
z"/>
<path fill="#4E8FFA" opacity="1.000000" stroke="none" 
	d="
M74.000000,401.000000 
	C59.645771,401.000000 45.291542,401.000000 30.475559,400.621735 
	C31.389694,395.161682 32.665821,390.048370 34.250015,385.032349 
	C34.485153,384.287811 36.212318,383.510376 37.182087,383.587921 
	C41.766022,383.954346 44.648468,381.695496 44.535149,377.499329 
	C44.371235,371.429565 51.274921,362.508301 57.196674,361.443695 
	C56.698841,360.448547 55.586914,359.146179 55.872326,358.653839 
	C58.681656,353.807739 61.377563,348.828766 64.790825,344.417694 
	C68.614555,339.476044 73.354401,335.250031 77.281845,330.379028 
	C79.169327,328.038055 78.943474,324.061157 83.070091,323.365326 
	C83.545189,323.285187 83.652893,321.271118 84.010475,320.179779 
	C84.360840,319.110504 84.502052,317.615417 85.269127,317.096252 
	C91.660484,312.770203 94.716286,306.035339 98.832703,299.895813 
	C103.380753,293.112549 109.688698,287.509216 114.324417,282.391815 
	C114.932297,279.437531 115.136337,276.315155 115.653732,276.262299 
	C120.605019,275.756836 121.393097,270.338196 125.235336,268.516846 
	C126.589684,267.874847 127.043701,265.333557 128.301636,263.536011 
	C134.686020,263.377228 140.686813,263.124908 146.665939,263.380127 
	C150.891281,263.560455 153.290985,261.895142 155.349350,258.247284 
	C165.216537,240.760529 174.933319,223.164459 185.554764,206.138245 
	C190.713470,197.868790 193.862534,190.500504 187.163666,181.626862 
	C187.545319,179.179855 187.772049,177.090240 187.999390,175.000305 
	C188.000000,175.000000 188.000610,174.998779 188.282959,174.946869 
	C189.043106,174.596329 189.520889,174.297729 190.332825,173.999054 
	C191.112549,173.998474 191.558105,173.997971 192.349106,173.974472 
	C194.127106,173.302124 195.559662,172.652786 197.251312,172.224030 
	C203.086395,182.269135 208.662384,192.093628 213.874863,201.997391 
	C211.443527,205.278458 209.208359,208.386444 207.348267,211.704697 
	C204.754105,216.332458 202.440353,221.117432 199.572800,225.900650 
	C195.073898,226.101425 190.685562,225.204956 188.088455,229.737900 
	C182.826447,238.922195 177.421951,248.027298 172.335846,257.307373 
	C171.549088,258.742859 172.138428,260.932556 171.974518,263.111725 
	C167.137024,267.946930 162.355652,272.383362 157.755676,277.000488 
	C156.989075,277.769958 156.738220,279.321106 156.717712,280.519073 
	C156.634171,285.400055 154.018326,288.597443 150.378906,291.484253 
	C148.301636,293.131927 146.738998,295.468842 145.089859,297.607391 
	C141.639557,302.081573 139.078476,307.801941 134.653717,310.795929 
	C130.754654,313.434204 129.776520,315.239471 131.150818,319.251068 
	C132.068695,321.930389 128.799133,326.446259 126.167816,325.971985 
	C122.265259,325.268616 120.727570,327.098724 120.004990,330.477356 
	C119.774101,331.556915 119.472237,333.302979 118.822166,333.502258 
	C114.066895,334.959900 114.295189,339.692230 112.277397,342.916840 
	C111.516129,344.133423 110.937874,346.010223 109.859688,346.383667 
	C106.160492,347.665009 104.646904,350.550049 104.215286,353.845642 
	C103.611794,358.453491 103.624702,363.080658 97.012276,362.648102 
	C96.691940,362.627167 96.318108,363.676971 95.942451,364.209320 
	C92.444191,369.166748 88.890083,374.085876 85.465950,379.093903 
	C84.334335,380.748962 83.533455,382.630188 81.910538,385.660583 
	C75.572792,387.485016 74.896263,394.307312 74.000000,401.000000 
z"/>
<path fill="#557CF8" opacity="1.000000" stroke="none" 
	d="
M197.999985,361.000000 
	C196.648026,362.073395 195.329910,363.193115 193.937378,364.211029 
	C190.654648,366.610687 188.121277,368.727570 187.197357,373.642578 
	C186.316452,378.328857 182.193192,382.893951 178.450500,386.395508 
	C175.587631,389.073944 172.019135,390.345825 171.675934,395.257233 
	C171.546494,397.109619 168.294937,398.743866 166.233307,400.738770 
	C149.312439,401.000000 132.624878,401.000000 115.502327,400.636719 
	C117.378433,398.637238 119.689529,397.001068 122.261475,395.180237 
	C120.866440,392.303558 120.879456,389.772308 124.922478,388.579468 
	C125.818535,388.315094 126.915237,386.529236 126.839149,385.525909 
	C126.315216,378.618103 130.808243,376.433960 136.246414,374.857147 
	C139.074631,374.037048 141.006317,369.701660 139.150162,367.689911 
	C136.526123,364.845917 136.929749,363.895020 140.576370,363.464783 
	C141.224060,363.388397 142.349075,362.420258 142.285492,362.016266 
	C141.649826,357.978119 145.358948,357.572266 147.261169,355.599060 
	C149.139725,353.650421 150.662888,351.273987 151.968262,348.881348 
	C153.340164,346.366730 153.644196,342.994812 155.522369,341.088837 
	C159.325577,337.229401 163.876923,334.107208 168.119797,330.681030 
	C168.910706,328.621307 170.278870,327.143646 171.423111,325.509155 
	C172.408340,324.101837 173.738770,322.561310 173.857162,320.999329 
	C174.110550,317.656677 175.345383,316.038818 178.495071,314.327057 
	C182.146439,312.342682 186.649384,308.918671 187.478058,305.351837 
	C189.403809,297.063019 193.553696,290.621674 199.164490,284.703156 
	C200.999237,282.767792 202.792252,280.774017 204.415985,278.662140 
	C206.577209,275.851196 208.656204,272.964325 210.575165,269.984283 
	C211.891556,267.939972 212.875473,265.681549 214.471527,263.453552 
	C227.701599,263.475464 240.468170,263.562592 253.588989,263.742706 
	C256.001312,263.941528 258.059357,264.047394 260.319702,264.331848 
	C261.039307,264.668945 261.556580,264.827423 262.433716,264.977173 
	C263.511902,264.958984 264.230225,264.949524 264.948547,264.940063 
	C265.201752,265.720825 265.919312,266.889679 265.639252,267.224670 
	C260.644531,273.199921 257.975006,280.728973 252.765320,286.510681 
	C251.385483,288.041992 249.207520,288.825928 247.550812,290.147125 
	C246.635666,290.876923 245.235931,292.252625 245.437332,292.919586 
	C246.509033,296.468323 244.493439,298.070221 242.017456,299.760925 
	C240.826950,300.573792 239.383011,301.816467 239.133621,303.077972 
	C237.387161,311.912170 229.844238,315.674744 224.081787,321.075592 
	C221.645370,323.359161 220.027588,326.516144 217.706573,329.789307 
	C215.343033,331.721405 213.238251,334.429321 211.291641,334.320038 
	C205.181717,333.977051 207.809586,336.823730 209.025253,339.177246 
	C207.651596,339.522552 205.691315,339.463593 205.303391,340.215698 
	C204.109161,342.530975 203.556259,345.170746 202.669662,347.654266 
	C202.317673,348.640289 201.674210,350.394226 201.281448,350.361938 
	C195.984909,349.926880 196.614014,354.924713 194.041977,357.336273 
	C195.582138,358.761932 196.791061,359.880981 197.999985,361.000000 
z"/>
<path fill="#4997FB" opacity="1.000000" stroke="none" 
	d="
M192.003662,173.997482 
	C191.558105,173.997971 191.112549,173.998474 190.136154,173.844849 
	C189.070419,174.126724 188.535507,174.562744 188.000610,174.998779 
	C188.000610,174.998779 188.000000,175.000000 187.632721,175.017883 
	C186.103470,175.391357 184.941483,175.746964 183.495026,175.916794 
	C180.477036,171.234726 177.859802,166.660797 174.940659,162.288452 
	C174.040970,160.940887 172.312103,159.325394 170.972839,159.334259 
	C169.743683,159.342392 168.165955,161.162735 167.361877,162.545273 
	C158.622253,177.572525 150.052170,192.698242 141.341339,207.742386 
	C131.801941,224.217529 122.132980,240.617630 112.590256,257.090851 
	C110.333054,260.987366 111.518990,263.059418 115.964684,263.281647 
	C119.942406,263.480469 123.927147,263.538971 127.908783,263.659424 
	C127.043701,265.333557 126.589684,267.874847 125.235336,268.516846 
	C121.393097,270.338196 120.605019,275.756836 115.653732,276.262299 
	C115.136337,276.315155 114.932297,279.437531 114.324417,282.391815 
	C109.688698,287.509216 103.380753,293.112549 98.832703,299.895813 
	C94.716286,306.035339 91.660484,312.770203 85.269127,317.096252 
	C84.502052,317.615417 84.360840,319.110504 84.010475,320.179779 
	C83.652893,321.271118 83.545189,323.285187 83.070091,323.365326 
	C78.943474,324.061157 79.169327,328.038055 77.281845,330.379028 
	C73.354401,335.250031 68.614555,339.476044 64.790825,344.417694 
	C61.377563,348.828766 58.681656,353.807739 55.872326,358.653839 
	C55.586914,359.146179 56.698841,360.448547 57.196674,361.443695 
	C51.274921,362.508301 44.371235,371.429565 44.535149,377.499329 
	C44.648468,381.695496 41.766022,383.954346 37.182087,383.587921 
	C36.212318,383.510376 34.485153,384.287811 34.250015,385.032349 
	C32.665821,390.048370 31.389694,395.161682 30.006901,400.621735 
	C20.420647,401.000000 10.841295,401.000000 1.000000,401.000000 
	C1.000000,394.648407 1.000000,388.293243 0.999996,381.469055 
	C2.358547,380.233215 4.717946,379.666962 4.918091,378.668060 
	C6.592671,370.310547 13.610592,364.803741 16.228569,356.971008 
	C16.641159,355.736572 18.579403,355.024841 19.787386,354.040924 
	C22.756241,351.622772 25.840273,349.325409 28.630224,346.714722 
	C30.915623,344.576141 33.131001,342.247314 34.858318,339.656738 
	C37.059765,336.355011 40.229252,333.202759 38.689766,328.016479 
	C40.038872,327.093536 41.878601,326.199707 43.214859,324.818726 
	C44.565784,323.422577 45.505157,321.592529 46.468689,319.865448 
	C47.976524,317.162720 48.902664,313.988159 50.893890,311.737946 
	C53.664581,308.606873 57.376541,306.326508 60.321159,303.324524 
	C61.943668,301.670441 62.835358,299.293488 64.030640,297.227478 
	C66.518219,292.927765 69.044624,288.648956 71.439339,284.297852 
	C72.444466,282.471558 73.070740,280.439850 74.026192,278.582245 
	C74.879936,276.922333 75.620064,274.828430 77.041092,273.969360 
	C77.972023,273.406555 80.026093,274.701538 82.076027,275.313385 
	C81.765213,275.442444 82.316849,275.331085 82.323418,275.193726 
	C82.606728,269.264648 87.754189,266.550598 90.636932,262.332672 
	C93.684479,257.873657 95.884850,252.845078 98.770309,248.263702 
	C103.787224,240.298187 109.021912,232.468918 114.244514,224.635361 
	C114.724945,223.914749 115.790726,223.110336 116.560188,223.134247 
	C121.171738,223.277481 122.727936,220.086121 124.272224,216.632217 
	C127.624100,209.135590 131.082642,201.686508 134.526031,194.231125 
	C134.796127,193.646347 135.549240,192.659317 135.638840,192.705795 
	C141.431641,195.709930 140.931900,188.039413 144.567398,187.456467 
	C144.850235,187.411102 145.343918,187.055695 145.317688,186.940399 
	C143.895996,180.691620 148.727524,180.180099 152.675323,178.761337 
	C153.359070,178.515610 154.405182,177.400024 154.278748,177.060181 
	C152.415085,172.050491 157.324860,170.798294 159.153458,167.840622 
	C160.405136,165.816055 160.940598,163.362000 162.051392,161.233093 
	C163.052673,159.314102 164.105835,156.342453 165.647720,155.973572 
	C172.064285,154.438507 172.577667,148.202438 175.952255,144.318359 
	C176.943008,143.178024 178.049271,142.138046 179.545807,141.385620 
	C184.682861,150.135406 189.376663,158.551651 193.839340,167.247864 
	C193.073349,169.684402 192.538498,171.840942 192.003662,173.997482 
M136.800507,198.357742 
	C136.985291,198.205750 137.170090,198.053741 137.354874,197.901749 
	C137.263474,197.802612 137.172073,197.703491 137.080673,197.604370 
	C136.915939,197.778519 136.751221,197.952667 136.800507,198.357742 
z"/>
<path fill="#4C8EFA" opacity="1.000000" stroke="none" 
	d="
M359.531342,1.000003 
	C356.377045,6.444545 352.961304,12.042717 349.071564,17.289461 
	C345.350983,22.307928 341.095276,26.927116 337.181396,31.807320 
	C336.511322,32.642780 336.404785,33.918365 335.987854,34.970806 
	C334.623413,38.415207 333.902374,42.306149 329.364380,43.355919 
	C328.368866,43.586212 327.294739,44.588856 326.761810,45.523705 
	C323.637177,51.004436 321.045837,56.830013 317.525970,62.032780 
	C314.209503,66.934853 309.945770,71.192772 306.154816,75.780388 
	C305.509521,76.561279 304.774048,77.552605 304.717224,78.485512 
	C304.471527,82.518433 304.073914,85.814919 298.720367,86.499207 
	C296.704742,86.756836 294.691193,89.697571 293.323608,91.830017 
	C289.981964,97.040527 287.319550,102.702240 283.801453,107.778816 
	C281.221100,111.502205 277.652802,114.529648 274.660187,117.984520 
	C273.574036,119.238426 272.898163,120.843521 272.004272,122.269028 
	C269.627411,126.059380 268.081055,131.268555 264.654907,133.299500 
	C259.043427,136.625870 256.642731,140.923569 256.082550,146.806839 
	C255.848877,149.261017 255.406860,150.880753 252.510315,151.164108 
	C251.479767,151.264908 250.494965,152.569885 249.629837,153.461563 
	C248.137787,154.999344 247.044495,157.232224 245.260788,158.107574 
	C242.492767,159.465958 242.067337,161.358215 241.843826,164.047699 
	C241.730164,165.415466 240.118057,166.658707 238.561478,167.753525 
	C231.432053,156.098923 224.924500,144.649017 218.759094,133.034241 
	C222.100296,130.971069 225.387741,129.400909 228.021088,127.086517 
	C230.928024,124.531670 235.783585,120.706680 235.269516,118.477470 
	C234.220871,113.930046 236.713181,111.348320 237.890350,108.041931 
	C239.442017,103.683624 241.433441,99.577446 246.937057,101.245560 
	C248.761703,97.883781 250.363586,94.921509 251.976120,91.965042 
	C253.156006,89.801796 254.235718,87.572289 255.571152,85.508934 
	C256.794922,83.618126 259.547058,81.838577 259.448883,80.135437 
	C259.159149,75.107529 263.103577,74.367989 265.859528,72.273438 
	C267.899353,70.723137 271.459686,68.974617 271.447693,67.335556 
	C271.411713,62.410866 272.073425,58.392735 276.103485,55.073307 
	C278.171051,53.370312 279.222992,50.373611 281.361084,48.830555 
	C284.909851,46.269409 288.694397,44.229786 288.865601,39.123707 
	C288.890747,38.373768 289.468231,37.583294 289.938568,36.916210 
	C296.690430,27.339979 303.439056,17.761078 310.276031,8.245740 
	C311.111938,7.082406 312.305054,5.931300 313.591827,5.384834 
	C316.741974,4.047025 315.635437,2.619106 314.000000,1.000000 
	C329.020905,1.000000 344.041779,1.000000 359.531342,1.000003 
z"/>
<path fill="#5085F9" opacity="1.000000" stroke="none" 
	d="
M214.007996,263.518799 
	C212.875473,265.681549 211.891556,267.939972 210.575165,269.984283 
	C208.656204,272.964325 206.577209,275.851196 204.415985,278.662140 
	C202.792252,280.774017 200.999237,282.767792 199.164490,284.703156 
	C193.553696,290.621674 189.403809,297.063019 187.478058,305.351837 
	C186.649384,308.918671 182.146439,312.342682 178.495071,314.327057 
	C175.345383,316.038818 174.110550,317.656677 173.857162,320.999329 
	C173.738770,322.561310 172.408340,324.101837 171.423111,325.509155 
	C170.278870,327.143646 168.910706,328.621307 168.119797,330.681030 
	C163.876923,334.107208 159.325577,337.229401 155.522369,341.088837 
	C153.644196,342.994812 153.340164,346.366730 151.968262,348.881348 
	C150.662888,351.273987 149.139725,353.650421 147.261169,355.599060 
	C145.358948,357.572266 141.649826,357.978119 142.285492,362.016266 
	C142.349075,362.420258 141.224060,363.388397 140.576370,363.464783 
	C136.929749,363.895020 136.526123,364.845917 139.150162,367.689911 
	C141.006317,369.701660 139.074631,374.037048 136.246414,374.857147 
	C130.808243,376.433960 126.315216,378.618103 126.839149,385.525909 
	C126.915237,386.529236 125.818535,388.315094 124.922478,388.579468 
	C120.879456,389.772308 120.866440,392.303558 122.261475,395.180237 
	C119.689529,397.001068 117.378433,398.637238 115.033669,400.636719 
	C101.645775,401.000000 88.291542,401.000000 74.468658,401.000000 
	C74.896263,394.307312 75.572792,387.485016 81.910538,385.660583 
	C83.533455,382.630188 84.334335,380.748962 85.465950,379.093903 
	C88.890083,374.085876 92.444191,369.166748 95.942451,364.209320 
	C96.318108,363.676971 96.691940,362.627167 97.012276,362.648102 
	C103.624702,363.080658 103.611794,358.453491 104.215286,353.845642 
	C104.646904,350.550049 106.160492,347.665009 109.859688,346.383667 
	C110.937874,346.010223 111.516129,344.133423 112.277397,342.916840 
	C114.295189,339.692230 114.066895,334.959900 118.822166,333.502258 
	C119.472237,333.302979 119.774101,331.556915 120.004990,330.477356 
	C120.727570,327.098724 122.265259,325.268616 126.167816,325.971985 
	C128.799133,326.446259 132.068695,321.930389 131.150818,319.251068 
	C129.776520,315.239471 130.754654,313.434204 134.653717,310.795929 
	C139.078476,307.801941 141.639557,302.081573 145.089859,297.607391 
	C146.738998,295.468842 148.301636,293.131927 150.378906,291.484253 
	C154.018326,288.597443 156.634171,285.400055 156.717712,280.519073 
	C156.738220,279.321106 156.989075,277.769958 157.755676,277.000488 
	C162.355652,272.383362 167.137024,267.946930 172.422852,263.241943 
	C186.661377,263.195526 200.334686,263.357178 214.007996,263.518799 
z"/>
<path fill="#6755F4" opacity="1.000000" stroke="none" 
	d="
M308.468658,401.000000 
	C310.790344,397.668091 314.570923,395.051880 315.138977,390.142731 
	C315.248901,389.192657 316.875305,387.911652 317.993927,387.669708 
	C323.757935,386.422791 326.504517,382.942230 326.311188,378.631561 
	C330.620789,375.677399 334.111572,373.432404 337.440308,370.968536 
	C342.568878,367.172516 335.352600,362.949188 338.887238,357.914093 
	C343.440399,356.793793 349.334869,355.343445 355.472473,353.833282 
	C354.982513,352.293152 354.551025,350.936859 354.083679,349.467957 
	C358.980835,346.165100 363.101868,342.891327 365.107635,336.707520 
	C366.537567,332.299164 371.317383,328.977417 375.048004,324.654266 
	C374.450958,321.463654 371.975891,316.523651 373.342590,313.131348 
	C374.622681,309.953979 379.971375,308.415771 383.824249,305.969086 
	C380.612244,299.462982 384.582062,295.213928 388.474030,290.892975 
	C392.496277,286.427368 396.439819,281.890869 400.708923,277.192688 
	C401.000000,318.249847 401.000000,359.499695 401.000000,401.000000 
	C370.312897,401.000000 339.625092,401.000000 308.468658,401.000000 
z"/>
<path fill="#4897FB" opacity="1.000000" stroke="none" 
	d="
M313.531342,1.000000 
	C315.635437,2.619106 316.741974,4.047025 313.591827,5.384834 
	C312.305054,5.931300 311.111938,7.082406 310.276031,8.245740 
	C303.439056,17.761078 296.690430,27.339979 289.938568,36.916210 
	C289.468231,37.583294 288.890747,38.373768 288.865601,39.123707 
	C288.694397,44.229786 284.909851,46.269409 281.361084,48.830555 
	C279.222992,50.373611 278.171051,53.370312 276.103485,55.073307 
	C272.073425,58.392735 271.411713,62.410866 271.447693,67.335556 
	C271.459686,68.974617 267.899353,70.723137 265.859528,72.273438 
	C263.103577,74.367989 259.159149,75.107529 259.448883,80.135437 
	C259.547058,81.838577 256.794922,83.618126 255.571152,85.508934 
	C254.235718,87.572289 253.156006,89.801796 251.976120,91.965042 
	C250.363586,94.921509 248.761703,97.883781 246.937057,101.245560 
	C241.433441,99.577446 239.442017,103.683624 237.890350,108.041931 
	C236.713181,111.348320 234.220871,113.930046 235.269516,118.477470 
	C235.783585,120.706680 230.928024,124.531670 228.021088,127.086517 
	C225.387741,129.400909 222.100296,130.971069 218.540344,132.800690 
	C213.726761,125.545227 209.559113,118.305649 205.153778,111.213730 
	C204.208557,109.692108 202.403198,108.704803 200.994080,107.471359 
	C203.250168,101.350082 211.133560,99.589020 212.011215,91.509834 
	C211.942032,91.372978 211.303192,90.109383 210.550461,88.620522 
	C217.470596,88.945732 216.331970,82.793510 218.617340,79.484329 
	C219.845200,77.706406 221.126221,75.965187 222.383240,74.207405 
	C222.806580,74.431366 223.229935,74.655327 223.653275,74.879288 
	C223.887787,73.274994 224.122299,71.670700 224.380417,69.904999 
	C226.014908,69.904999 227.465714,70.033905 228.886154,69.880928 
	C233.219437,69.414230 235.237915,65.996429 233.095566,62.407505 
	C231.398438,59.564449 233.110748,58.612617 235.199112,58.278603 
	C238.092270,57.815876 238.569901,56.687073 238.798996,53.717720 
	C238.977875,51.398998 241.481522,48.533226 243.718735,47.289700 
	C246.320694,45.843430 248.995514,45.275749 248.516983,41.501442 
	C248.448135,40.958370 248.931076,39.854691 249.230591,39.828358 
	C254.693314,39.348141 253.344742,35.369125 253.804916,31.883806 
	C254.348526,27.766554 257.626678,25.509741 261.400879,24.130934 
	C262.743439,23.640459 264.094330,23.172920 266.068390,22.472439 
	C264.644653,20.957829 263.716553,19.970491 262.388611,18.557798 
	C264.609406,16.813463 266.547333,14.556788 268.998383,13.552440 
	C272.048279,12.302725 274.353851,11.540401 273.434052,7.384634 
	C273.063843,5.711848 274.419556,3.657060 274.994873,1.388066 
	C287.687561,1.000000 300.375122,1.000000 313.531342,1.000000 
z"/>
<path fill="#3EABFE" opacity="1.000000" stroke="none" 
	d="
M180.382736,19.004217 
	C180.435715,17.309269 180.317047,14.897562 181.407883,14.058777 
	C185.369873,11.012239 185.671188,7.747699 183.256516,3.734935 
	C182.948181,3.222540 183.081604,2.444312 183.005188,1.394616 
	C186.361282,1.000000 189.722580,1.000000 193.541931,0.999999 
	C192.402115,4.120279 190.788620,7.232707 189.214386,10.364877 
	C188.621918,11.543674 187.521423,12.852429 187.676758,13.958015 
	C188.553833,20.199802 184.934723,19.896824 180.382736,19.004217 
z"/>
<path fill="#6260F5" opacity="1.000000" stroke="none" 
	d="
M401.000000,209.666672 
	C400.279266,209.612473 399.558502,209.224930 398.837769,208.837402 
	C399.354370,208.570389 399.871002,208.303391 400.693787,208.018188 
	C401.000000,208.444443 401.000000,208.888901 401.000000,209.666672 
z"/>
<path fill="#FEFEFF" opacity="1.000000" stroke="none" 
	d="
M200.666794,107.626205 
	C202.403198,108.704803 204.208557,109.692108 205.153778,111.213730 
	C209.559113,118.305649 213.726761,125.545227 218.198181,132.965561 
	C224.924500,144.649017 231.432053,156.098923 238.133423,167.787476 
	C245.657990,180.632156 252.988754,193.238190 260.612091,206.029999 
	C262.056488,209.994522 260.937866,212.114807 256.707764,212.008804 
	C255.422928,211.976608 254.136002,212.027283 251.957779,212.037827 
	C245.757553,212.025192 240.408569,211.590210 235.150681,212.098099 
	C225.936600,212.988129 218.050903,211.819260 214.238373,201.918121 
	C208.662384,192.093628 203.086395,182.269135 197.215546,171.893463 
	C195.970627,169.884140 195.020554,168.426010 194.070480,166.967880 
	C189.376663,158.551651 184.682861,150.135406 179.910889,141.357788 
	C183.576065,134.768356 187.269073,128.509338 191.078720,122.322128 
	C194.091354,117.429359 197.247253,112.624794 200.666794,107.626205 
z"/>
<path fill="#3EABFE" opacity="1.000000" stroke="none" 
	d="
M32.996449,213.998703 
	C35.651604,210.795944 38.306751,207.593170 41.260277,204.030487 
	C40.533260,203.051453 39.517498,201.683578 38.008587,199.651611 
	C40.473610,199.277069 42.359776,199.110840 44.184982,198.683990 
	C46.714336,198.092468 49.690586,197.908707 48.688763,193.765472 
	C48.527000,193.096497 50.212505,191.397095 51.290245,191.115280 
	C55.498276,190.014954 56.925869,187.107803 57.660789,183.206985 
	C58.051407,181.133652 59.254978,179.179214 60.280228,177.272537 
	C60.894642,176.129913 62.316227,175.295670 62.612705,174.129074 
	C64.046219,168.488388 68.045998,166.173279 73.657516,165.521988 
	C74.000053,166.499374 74.000633,167.250656 74.001221,168.001938 
	C70.517448,172.512100 65.453026,176.566910 63.986267,181.658157 
	C62.463406,186.944138 58.311890,189.397156 56.068039,193.541031 
	C54.949390,195.606918 54.477859,198.023209 53.579578,200.676987 
	C50.629021,200.671768 49.119694,201.974930 47.889797,205.701248 
	C46.728981,209.218277 42.471912,211.713333 38.915443,214.829559 
	C37.503574,215.002213 36.753086,215.003250 35.754227,214.793518 
	C34.669384,214.388077 33.832916,214.193390 32.996449,213.998703 
z"/>
<path fill="#3EABFE" opacity="1.000000" stroke="none" 
	d="
M143.362213,67.971573 
	C143.430771,66.973190 143.568558,65.533943 144.339722,64.985817 
	C150.794144,60.398167 152.551056,53.175533 155.075577,46.370831 
	C155.245972,45.911560 155.305756,45.095882 155.564178,45.030838 
	C161.808304,43.459209 160.840530,36.528843 164.499924,33.078941 
	C168.747665,29.074381 173.044739,25.122150 177.659836,21.073277 
	C178.562653,22.178455 179.126022,23.357559 179.232071,23.579521 
	C176.569077,27.998796 174.385330,31.937233 171.863403,35.645691 
	C170.918182,37.035622 169.186310,37.890591 167.090118,39.567993 
	C164.942596,43.238903 161.416351,47.611336 159.682892,52.605976 
	C156.871628,60.706123 150.411392,64.272682 143.362213,67.971573 
z"/>
<path fill="#3EABFD" opacity="1.000000" stroke="none" 
	d="
M74.338593,167.933960 
	C74.000633,167.250656 74.000053,166.499374 73.999031,165.372391 
	C75.168121,163.021698 77.844032,161.440903 75.555397,158.566681 
	C75.233948,158.162964 75.205887,157.154861 75.486237,156.700775 
	C77.948494,152.712662 80.348526,148.668076 83.102875,144.884750 
	C84.895836,142.421982 88.704048,141.122101 87.128349,136.975235 
	C88.015800,136.779434 88.903244,136.583618 89.895340,136.693604 
	C91.038506,138.380051 92.299156,139.651886 93.045746,141.175583 
	C93.650909,142.410660 93.638168,143.948486 93.899490,145.352036 
	C88.305275,146.317093 87.514214,151.739594 84.692787,155.276672 
	C81.348701,159.468994 78.014473,163.669189 74.338593,167.933960 
z"/>
<path fill="#3EABFE" opacity="1.000000" stroke="none" 
	d="
M32.707848,214.189484 
	C33.832916,214.193390 34.669384,214.388077 35.754105,215.125687 
	C36.002228,216.111588 36.002106,216.554581 36.001984,216.997559 
	C35.190525,218.916382 34.536106,220.924194 33.515961,222.724777 
	C32.754005,224.069656 31.519890,225.147018 30.247719,226.170837 
	C28.878038,221.723969 28.831879,217.673721 32.707848,214.189484 
z"/>
<path fill="#3CB1FE" opacity="1.000000" stroke="none" 
	d="
M36.284882,217.113953 
	C36.002106,216.554581 36.002228,216.111588 36.002472,215.336441 
	C36.753086,215.003250 37.503574,215.002213 38.629501,215.000610 
	C38.192551,215.743469 37.380165,216.486908 36.284882,217.113953 
z"/>
<path fill="#3EABFE" opacity="1.000000" stroke="none" 
	d="
M178.294327,20.917797 
	C178.469482,20.387100 178.939575,19.774860 179.704529,19.081003 
	C179.529358,19.611675 179.059311,20.223965 178.294327,20.917797 
z"/>
<path fill="#FFFFFF" opacity="1.000000" stroke="none" 
	d="
M214.471512,263.453552 
	C200.334686,263.357178 186.661377,263.195526 172.539734,262.903687 
	C172.138428,260.932556 171.549088,258.742859 172.335846,257.307373 
	C177.421951,248.027298 182.826447,238.922195 188.088455,229.737900 
	C190.685562,225.204956 195.073898,226.101425 200.037018,225.964157 
	C214.632416,225.919495 228.329773,225.876831 242.027145,225.834167 
	C249.983688,225.889343 257.941620,226.055252 265.896240,225.956345 
	C270.360321,225.900864 273.462616,227.534592 275.467102,231.611694 
	C277.289185,235.317795 279.459503,238.852692 281.764160,242.633194 
	C284.702393,247.495529 287.598236,252.073654 289.862305,256.945374 
	C290.597656,258.527649 289.680664,260.877777 288.749176,263.099365 
	C276.397491,263.431244 264.816101,263.540497 253.234726,263.649719 
	C240.468170,263.562592 227.701599,263.475464 214.471512,263.453552 
z"/>
<path fill="#5877F7" opacity="1.000000" stroke="none" 
	d="
M198.406158,361.000488 
	C196.791061,359.880981 195.582138,358.761932 194.041977,357.336273 
	C196.614014,354.924713 195.984909,349.926880 201.281448,350.361938 
	C201.674210,350.394226 202.317673,348.640289 202.669662,347.654266 
	C203.556259,345.170746 204.109161,342.530975 205.303391,340.215698 
	C205.691315,339.463593 207.651596,339.522552 209.025253,339.177246 
	C207.809586,336.823730 205.181717,333.977051 211.291641,334.320038 
	C213.238251,334.429321 215.343033,331.721405 217.687714,330.151245 
	C219.421356,333.360413 217.930328,335.229706 215.630371,337.974060 
	C212.234024,342.026611 209.675674,347.216919 208.220108,352.337616 
	C206.776382,357.416687 204.315384,360.732971 198.406158,361.000488 
z"/>
<path fill="#4E8FFA" opacity="1.000000" stroke="none" 
	d="
M253.588989,263.742676 
	C264.816101,263.540497 276.397491,263.431244 288.439270,263.338379 
	C283.123688,263.576691 277.346771,263.777252 271.572235,264.032379 
	C269.597717,264.119598 267.629303,264.343811 265.303314,264.722748 
	C264.230225,264.949524 263.511902,264.958984 262.228851,264.789612 
	C261.148560,264.458282 260.632996,264.305756 260.117432,264.153259 
	C258.059357,264.047394 256.001312,263.941528 253.588989,263.742676 
z"/>
<path fill="#5086F9" opacity="1.000000" stroke="none" 
	d="
M242.213394,225.552460 
	C228.329773,225.876831 214.632416,225.919495 200.470825,225.898636 
	C202.440353,221.117432 204.754105,216.332458 207.348267,211.704697 
	C209.208359,208.386444 211.443527,205.278458 213.874863,201.997391 
	C218.050903,211.819260 225.936600,212.988129 235.150681,212.098099 
	C240.408569,211.590210 245.757553,212.025192 251.529312,212.100586 
	C251.926285,216.327103 251.060150,219.712662 246.180374,220.992355 
	C244.651276,221.393356 243.645142,223.788422 242.213394,225.552460 
z"/>
<path fill="#557CF8" opacity="1.000000" stroke="none" 
	d="
M282.608765,168.959946 
	C282.853668,168.791092 283.094330,168.782318 283.335022,168.773529 
	C283.331268,168.909302 283.327484,169.045074 283.323700,169.180847 
	C283.083984,169.160568 282.844269,169.140289 282.608765,168.959946 
z"/>
<path fill="#FEFEFF" opacity="1.000000" stroke="none" 
	d="
M128.301636,263.536011 
	C123.927147,263.538971 119.942406,263.480469 115.964684,263.281647 
	C111.518990,263.059418 110.333054,260.987366 112.590256,257.090851 
	C122.132980,240.617630 131.801941,224.217529 141.341339,207.742386 
	C150.052170,192.698242 158.622253,177.572525 167.361877,162.545273 
	C168.165955,161.162735 169.743683,159.342392 170.972839,159.334259 
	C172.312103,159.325394 174.040970,160.940887 174.940659,162.288452 
	C177.859802,166.660797 180.477036,171.234726 183.561127,176.257568 
	C184.944061,178.517487 185.976395,180.250870 187.008743,181.984238 
	C193.862534,190.500504 190.713470,197.868790 185.554764,206.138245 
	C174.933319,223.164459 165.216537,240.760529 155.349350,258.247284 
	C153.290985,261.895142 150.891281,263.560455 146.665939,263.380127 
	C140.686813,263.124908 134.686020,263.377228 128.301636,263.536011 
z"/>
<path fill="#4F96FB" opacity="1.000000" stroke="none" 
	d="
M193.839340,167.247864 
	C195.020554,168.426010 195.970627,169.884140 196.956467,171.672852 
	C195.559662,172.652786 194.127106,173.302124 192.349106,173.974472 
	C192.538498,171.840942 193.073349,169.684402 193.839340,167.247864 
z"/>
<path fill="#4C95FB" opacity="1.000000" stroke="none" 
	d="
M187.163666,181.626862 
	C185.976395,180.250870 184.944061,178.517487 183.845612,176.443344 
	C184.941483,175.746964 186.103470,175.391357 187.632111,175.018188 
	C187.772049,177.090240 187.545319,179.179855 187.163666,181.626862 
z"/>
<path fill="#4C95FB" opacity="1.000000" stroke="none" 
	d="
M188.282959,174.946854 
	C188.535507,174.562744 189.070419,174.126724 189.802002,173.844910 
	C189.520889,174.297729 189.043106,174.596329 188.282959,174.946854 
z"/>
<path fill="#5A72F7" opacity="1.000000" stroke="none" 
	d="
M260.319702,264.331848 
	C260.632996,264.305756 261.148560,264.458282 261.869019,264.798340 
	C261.556580,264.827423 261.039307,264.668945 260.319702,264.331848 
z"/>
<path fill="#449EFC" opacity="1.000000" stroke="none" 
	d="
M136.693512,198.242279 
	C136.751221,197.952667 136.915939,197.778519 137.080673,197.604370 
	C137.172073,197.703491 137.263474,197.802612 137.354874,197.901749 
	C137.170090,198.053741 136.985291,198.205750 136.693512,198.242279 
z"/>
</svg>