
<svg version="1.1" id="Layer_1" xmlns="http://www.w3.org/2000/svg" xmlns:xlink="http://www.w3.org/1999/xlink" x="0px" y="0px"
	 width="100%" viewBox="0 0 314 346" enable-background="new 0 0 314 346" xml:space="preserve">
<path  opacity="0" stroke="none" 
	d="
M178.000000,347.000000 
	C118.666664,347.000000 59.833332,347.000000 1.000000,347.000000 
	C1.000000,231.666672 1.000000,116.333336 1.000000,1.000000 
	C105.666664,1.000000 210.333328,1.000000 315.000000,1.000000 
	C315.000000,116.333336 315.000000,231.666672 315.000000,347.000000 
	C269.500000,347.000000 224.000000,347.000000 178.000000,347.000000 
M230.087219,238.082611 
	C230.087219,238.082611 230.089020,238.179489 230.724472,237.933701 
	C234.154236,234.298019 237.583984,230.662323 241.423203,226.520248 
	C242.312073,225.569534 243.200958,224.618820 244.604324,223.399048 
	C246.041260,221.595474 247.478195,219.791885 249.407196,217.813980 
	C249.611252,217.539215 249.815308,217.264450 250.589279,216.815720 
	C251.079559,216.214127 251.569855,215.612534 252.005524,214.998444 
	C252.005524,214.998444 252.037781,215.044250 252.583115,214.632080 
	C256.641663,208.322556 261.646271,202.414932 264.537537,195.609497 
	C268.900421,185.340164 271.788239,174.444153 275.444702,163.244659 
	C275.379486,162.862534 275.314301,162.480408 275.474701,161.254684 
	C275.765198,159.574966 276.055695,157.895233 276.833862,155.507385 
	C276.213562,145.033783 275.593262,134.560165 275.002167,123.222115 
	C274.710815,119.795837 275.000885,116.192398 274.020813,112.975975 
	C270.887207,102.691910 267.958221,92.256020 263.667053,82.439682 
	C259.497620,72.901848 254.056732,63.834312 245.726288,56.313869 
	C240.438644,51.327518 236.379364,44.867882 228.535553,41.905987 
	C227.929840,41.627525 227.324127,41.349060 226.271179,40.628281 
	C220.484833,37.660706 214.698471,34.693130 208.595840,31.360857 
	C208.595840,31.360857 208.140289,31.201067 208.281311,31.094763 
	C208.281311,31.094763 208.249481,31.220648 207.487442,31.030506 
	C203.366013,29.671761 199.244568,28.313015 194.844452,26.540936 
	C194.590836,26.212376 194.293564,26.166506 193.238693,26.301388 
	C192.528839,26.183809 191.818970,26.066231 190.841309,25.375839 
	C182.126556,23.155787 173.367126,21.515825 164.277359,22.101276 
	C155.080017,22.693657 145.790222,22.417215 136.682114,23.604513 
	C131.625244,24.263710 126.856873,27.135996 121.331917,29.040165 
	C120.913979,29.047630 120.496040,29.055094 119.551453,28.831251 
	C117.292778,30.186584 115.034103,31.541918 112.053482,32.947514 
	C100.590385,36.994373 91.501297,44.915112 83.141945,53.033665 
	C75.124992,60.819672 69.290848,70.823936 62.274914,79.677010 
	C52.493248,92.020042 47.828842,106.768745 43.519836,121.401245 
	C40.354176,132.151199 38.709782,143.575500 38.070309,154.795197 
	C36.792755,177.210144 38.757240,199.405182 45.988121,220.929489 
	C52.797699,241.199722 62.995911,259.538605 77.349045,275.323914 
	C82.937370,281.469849 89.778275,286.527252 96.308319,291.756165 
	C110.502617,303.122284 127.161888,309.318207 144.846130,311.543549 
	C155.192139,312.845428 166.004990,311.445618 176.502106,310.295929 
	C191.260681,308.679535 204.123734,301.744995 216.335556,293.770508 
	C223.317520,289.211212 224.758423,283.152924 219.684814,279.805328 
	C216.921249,277.981964 212.270508,277.504456 208.935226,278.319672 
	C193.046158,282.203156 178.956711,276.864716 165.762665,269.545776 
	C156.474792,264.393677 148.709610,256.685394 142.903809,247.437592 
	C135.998611,236.438568 128.860092,225.567337 126.641891,212.370407 
	C124.968422,202.414246 122.577934,192.547928 121.498085,182.534714 
	C120.895111,176.943436 122.808907,171.126984 122.728386,165.424149 
	C122.518082,150.528519 127.541367,137.569901 134.448151,124.509834 
	C143.132706,108.088203 169.368423,101.265732 186.308136,112.790863 
	C189.143814,114.720154 192.350525,116.631569 194.208237,119.354599 
	C197.486267,124.159576 200.075104,129.480927 202.560089,134.770462 
	C206.789429,143.773041 203.226715,164.203735 194.548538,170.328400 
	C187.369675,175.394928 179.833801,180.573303 171.666000,183.488144 
	C156.189484,189.011246 144.325470,202.448807 145.567352,219.416336 
	C147.081894,224.086975 147.774857,229.278931 150.322586,233.293961 
	C153.386688,238.122803 158.028656,241.950424 162.444290,246.808807 
	C163.328400,247.519211 164.120972,248.409546 165.110428,248.912888 
	C178.780365,255.866882 192.932144,257.128632 207.495422,252.152420 
	C214.449188,249.776352 221.212875,246.969116 226.467926,240.932465 
	C226.467926,240.932465 226.883972,240.766235 227.546829,240.870407 
	C228.425919,239.940628 229.305008,239.010864 230.087219,238.082611 
M253.126007,281.064148 
	C254.698364,280.658051 256.296875,280.332306 257.838165,279.830780 
	C262.400665,278.346100 265.633698,271.551697 264.790161,265.344116 
	C264.306274,261.783234 259.953461,259.336121 255.038239,258.754761 
	C248.793762,258.016174 246.022583,262.498413 242.495682,265.995239 
	C238.091934,270.361450 239.018326,277.238831 244.640244,279.802643 
	C246.898071,280.832306 249.698166,280.672882 253.126007,281.064148 
z"/>
<path fill="#77BE43" opacity="1.000000" stroke="none" 
	d="
M226.718414,41.070599 
	C227.324127,41.349060 227.929840,41.627525 228.889893,42.436741 
	C234.762299,47.632057 240.280396,52.296616 245.798477,56.961174 
	C254.056732,63.834312 259.497620,72.901848 263.667053,82.439682 
	C267.958221,92.256020 270.887207,102.691910 274.020813,112.975975 
	C275.000885,116.192398 274.710815,119.795837 274.826172,124.005348 
	C274.496857,126.426910 274.183105,128.068558 274.216980,129.703018 
	C274.398865,138.488708 274.667236,147.272614 274.772064,156.356567 
	C274.841949,158.470093 275.045502,160.284180 275.249084,162.098282 
	C275.314301,162.480408 275.379486,162.862534 275.082153,163.679596 
	C274.171539,164.907898 273.357880,165.627716 273.114716,166.505554 
	C268.721893,182.364655 263.224518,197.697189 252.933472,210.891235 
	C252.149216,211.896744 252.314087,213.642563 252.037781,215.044250 
	C252.037781,215.044250 252.005524,214.998444 251.753937,215.110413 
	C251.008026,215.811478 250.513687,216.400574 250.019348,216.989685 
	C249.815308,217.264450 249.611252,217.539215 248.869003,218.035065 
	C246.917160,220.060150 245.503510,221.864136 244.089844,223.668121 
	C243.200958,224.618820 242.312073,225.569534 240.891815,226.866806 
	C236.936615,230.868744 233.512817,234.524109 230.089020,238.179474 
	C230.089020,238.179489 230.087219,238.082611 229.835358,238.168610 
	C228.683640,239.091812 227.783813,239.929031 226.883972,240.766235 
	C226.883972,240.766235 226.467926,240.932465 225.894318,241.039932 
	C222.828690,242.448364 220.293701,243.673767 217.851532,245.062424 
	C200.484665,254.937485 183.023422,257.084076 165.300705,245.921539 
	C164.384460,245.344452 163.090775,245.366608 161.784164,244.826035 
	C154.881958,237.830505 148.593414,230.879700 147.504608,220.804047 
	C147.430420,220.117477 146.559692,219.516968 146.059418,218.876419 
	C144.325470,202.448807 156.189484,189.011246 171.666000,183.488144 
	C179.833801,180.573303 187.369675,175.394928 194.548538,170.328400 
	C203.226715,164.203735 206.789429,143.773041 202.560089,134.770462 
	C200.075104,129.480927 197.486267,124.159576 194.208237,119.354599 
	C192.350525,116.631569 189.143814,114.720154 186.308136,112.790863 
	C169.368423,101.265732 143.132706,108.088203 134.448151,124.509834 
	C127.541367,137.569901 122.518082,150.528519 122.728386,165.424149 
	C122.808907,171.126984 120.895111,176.943436 121.498085,182.534714 
	C122.577934,192.547928 124.968422,202.414246 126.641891,212.370407 
	C128.860092,225.567337 135.998611,236.438568 142.903809,247.437592 
	C148.709610,256.685394 156.474792,264.393677 165.762665,269.545776 
	C178.956711,276.864716 193.046158,282.203156 208.935226,278.319672 
	C212.270508,277.504456 216.921249,277.981964 219.684814,279.805328 
	C224.758423,283.152924 223.317520,289.211212 216.335556,293.770508 
	C204.123734,301.744995 191.260681,308.679535 176.502106,310.295929 
	C166.004990,311.445618 155.192139,312.845428 144.846130,311.543549 
	C127.161888,309.318207 110.502617,303.122284 96.308319,291.756165 
	C89.778275,286.527252 82.937370,281.469849 77.349045,275.323914 
	C62.995911,259.538605 52.797699,241.199722 45.988121,220.929489 
	C38.757240,199.405182 36.792755,177.210144 38.070309,154.795197 
	C38.709782,143.575500 40.354176,132.151199 43.519836,121.401245 
	C47.828842,106.768745 52.493248,92.020042 62.274914,79.677010 
	C69.290848,70.823936 75.124992,60.819672 83.141945,53.033665 
	C91.501297,44.915112 100.590385,36.994373 112.795349,32.891464 
	C115.717514,31.577797 117.897804,30.320177 120.078102,29.062557 
	C120.496040,29.055094 120.913979,29.047630 122.029175,28.973532 
	C124.957024,28.269350 127.170982,27.564932 129.420853,27.004772 
	C148.463806,22.263554 167.571915,22.610081 186.738342,26.228508 
	C188.128128,26.490885 189.649124,26.058184 191.109116,25.948652 
	C191.818970,26.066231 192.528839,26.183809 193.763199,26.498119 
	C194.541977,26.859285 194.820465,26.945759 195.123138,26.954269 
	C199.244568,28.313015 203.366013,29.671761 207.844543,31.101707 
	C208.201660,31.172909 208.140289,31.201067 208.140289,31.201067 
	C208.140289,31.201067 208.595840,31.360857 208.949234,31.779263 
	C215.107895,35.155312 220.913147,38.112957 226.718414,41.070599 
z"/>
<path fill="#76B648" opacity="1.000000" stroke="none" 
	d="
M252.688721,281.059387 
	C249.698166,280.672882 246.898071,280.832306 244.640244,279.802643 
	C239.018326,277.238831 238.091934,270.361450 242.495682,265.995239 
	C246.022583,262.498413 248.793762,258.016174 255.038239,258.754761 
	C259.953461,259.336121 264.306274,261.783234 264.790161,265.344116 
	C265.633698,271.551697 262.400665,278.346100 257.838165,279.830780 
	C256.296875,280.332306 254.698364,280.658051 252.688721,281.059387 
z"/>
<path fill="#77A857" opacity="1.000000" stroke="none" 
	d="
M161.972824,245.109772 
	C163.090775,245.366608 164.384460,245.344452 165.300705,245.921539 
	C183.023422,257.084076 200.484665,254.937485 217.851532,245.062424 
	C220.293701,243.673767 222.828690,242.448364 225.671722,241.065063 
	C221.212875,246.969116 214.449188,249.776352 207.495422,252.152420 
	C192.932144,257.128632 178.780365,255.866882 165.110428,248.912888 
	C164.120972,248.409546 163.328400,247.519211 162.221054,246.326080 
	C161.989777,245.598831 161.981445,245.354294 161.972824,245.109772 
z"/>
<path fill="#68934E" opacity="1.000000" stroke="none" 
	d="
M190.975220,25.662247 
	C189.649124,26.058184 188.128128,26.490885 186.738342,26.228508 
	C167.571915,22.610081 148.463806,22.263554 129.420853,27.004772 
	C127.170982,27.564932 124.957024,28.269350 122.342453,28.958855 
	C126.856873,27.135996 131.625244,24.263710 136.682114,23.604513 
	C145.790222,22.417215 155.080017,22.693657 164.277359,22.101276 
	C173.367126,21.515825 182.126556,23.155787 190.975220,25.662247 
z"/>
<path fill="#74A457" opacity="1.000000" stroke="none" 
	d="
M252.310455,214.838165 
	C252.314087,213.642563 252.149216,211.896744 252.933472,210.891235 
	C263.224518,197.697189 268.721893,182.364655 273.114716,166.505554 
	C273.357880,165.627716 274.171539,164.907898 275.011292,163.964508 
	C271.788239,174.444153 268.900421,185.340164 264.537537,195.609497 
	C261.646271,202.414932 256.641663,208.322556 252.310455,214.838165 
z"/>
<path fill="#73A355" opacity="1.000000" stroke="none" 
	d="
M161.784164,244.826035 
	C161.981445,245.354294 161.989777,245.598831 161.992645,246.027435 
	C158.028656,241.950424 153.386688,238.122803 150.322586,233.293961 
	C147.774857,229.278931 147.081894,224.086975 145.813385,219.146378 
	C146.559692,219.516968 147.430420,220.117477 147.504608,220.804047 
	C148.593414,230.879700 154.881958,237.830505 161.784164,244.826035 
z"/>
<path fill="#83AA65" opacity="1.000000" stroke="none" 
	d="
M274.905762,156.057144 
	C274.667236,147.272614 274.398865,138.488708 274.216980,129.703018 
	C274.183105,128.068558 274.496857,126.426910 274.811584,124.437569 
	C275.593262,134.560165 276.213562,145.033783 276.230896,155.815460 
	C275.387207,156.101410 275.146484,156.079285 274.905762,156.057144 
z"/>
<path fill="#78A959" opacity="1.000000" stroke="none" 
	d="
M245.762390,56.637520 
	C240.280396,52.296616 234.762299,47.632057 229.127563,42.672340 
	C236.379364,44.867882 240.438644,51.327518 245.762390,56.637520 
z"/>
<path fill="#78A959" opacity="1.000000" stroke="none" 
	d="
M226.494797,40.849442 
	C220.913147,38.112957 215.107895,35.155312 209.107376,31.961609 
	C214.698471,34.693130 220.484833,37.660706 226.494797,40.849442 
z"/>
<path fill="#74A457" opacity="1.000000" stroke="none" 
	d="
M230.406738,238.056580 
	C233.512817,234.524109 236.936615,230.868744 240.687073,227.119995 
	C237.583984,230.662323 234.154236,234.298019 230.406738,238.056580 
z"/>
<path fill="#68934E" opacity="1.000000" stroke="none" 
	d="
M119.814774,28.946903 
	C117.897804,30.320177 115.717514,31.577797 113.156326,32.866333 
	C115.034103,31.541918 117.292778,30.186584 119.814774,28.946903 
z"/>
<path fill="#74A457" opacity="1.000000" stroke="none" 
	d="
M244.347092,223.533600 
	C245.503510,221.864136 246.917160,220.060150 248.622955,218.122223 
	C247.478195,219.791885 246.041260,221.595474 244.347092,223.533600 
z"/>
<path fill="#74A457" opacity="1.000000" stroke="none" 
	d="
M274.772064,156.356567 
	C275.146484,156.079285 275.387207,156.101410 275.987061,156.169525 
	C276.055695,157.895233 275.765198,159.574966 275.361877,161.676483 
	C275.045502,160.284180 274.841949,158.470093 274.772064,156.356567 
z"/>
<path fill="#74A457" opacity="1.000000" stroke="none" 
	d="
M227.215393,240.818329 
	C227.783813,239.929031 228.683640,239.091812 229.883789,238.167847 
	C229.305008,239.010864 228.425919,239.940628 227.215393,240.818329 
z"/>
<path fill="#74A457" opacity="1.000000" stroke="none" 
	d="
M250.304321,216.902695 
	C250.513687,216.400574 251.008026,215.811478 251.781250,215.116669 
	C251.569855,215.612534 251.079559,216.214127 250.304321,216.902695 
z"/>
<path fill="#68934E" opacity="1.000000" stroke="none" 
	d="
M194.983795,26.747604 
	C194.820465,26.945759 194.541977,26.859285 194.120178,26.549088 
	C194.293564,26.166506 194.590836,26.212376 194.983795,26.747604 
z"/>
<path fill="#78A959" opacity="1.000000" stroke="none" 
	d="
M208.210800,31.147915 
	C208.140289,31.201067 208.201660,31.172909 208.225571,31.196777 
	C208.249481,31.220648 208.281311,31.094763 208.210800,31.147915 
z"/>
</svg>