<svg
        xmlns="http://www.w3.org/2000/svg"
        version="1.0"
        viewBox="0 0 749 512"
      >
        <path
          fill="#FF4000"
          fill-opacity=".1"
          d="M107.8 41.7c.7.3 1.6.2 1.9-.1.4-.3-.2-.6-1.3-.5-1.1 0-1.4.3-.6.6zM277 55.3c0 .2 1.5 1.6 3.3 3.3l3.2 2.9-2.9-3.3c-2.8-3-3.6-3.7-3.6-2.9zm45 23.1c0 .2.8 1 1.8 1.7 1.5 1.3 1.6 1.2.3-.4s-2.1-2.1-2.1-1.3zm30 62c0 .2.8 1 1.8 1.7 1.5 1.3 1.6 1.2.3-.4s-2.1-2.1-2.1-1.3zm14 14c0 .2.8 1 1.8 1.7 1.5 1.3 1.6 1.2.3-.4s-2.1-2.1-2.1-1.3zm33.5 126.7c-.4.6-.5 1.2-.2 1.5.2.3.7-.2 1-1.1.7-1.7.1-2-.8-.4zm201.4 36.6c-1.3 1.6-1.2 1.7.4.4 1.6-1.3 2.1-2.1 1.3-2.1-.2 0-1 .8-1.7 1.7zm107.1 3.7c0 .2.8 1 1.8 1.7 1.5 1.3 1.6 1.2.3-.4s-2.1-2.1-2.1-1.3zm-381 4c0 .2.8 1 1.8 1.7 1.5 1.3 1.6 1.2.3-.4s-2.1-2.1-2.1-1.3zm6 6c0 .2.8 1 1.8 1.7 1.5 1.3 1.6 1.2.3-.4s-2.1-2.1-2.1-1.3zm-9.2 34.3c.6.2 1.8.2 2.5 0 .6-.3.1-.5-1.3-.5-1.4 0-1.9.2-1.2.5zm150 1c.7.3 1.6.2 1.9-.1.4-.3-.2-.6-1.3-.5-1.1 0-1.4.3-.6.6z"
        />
        <path
          fill="#FF4000"
          fill-opacity=".2"
          d="M11.3 44.7c.9.2 2.5.2 3.5 0 .9-.3.1-.5-1.8-.5-1.9 0-2.7.2-1.7.5zm413 239c.9.2 2.3.2 3 0 .6-.3-.1-.5-1.8-.5-1.6 0-2.2.2-1.2.5zM711 324.3c0 .2 1.5 1.6 3.3 3.3l3.2 2.9-2.9-3.3c-2.8-3-3.6-3.7-3.6-2.9zm-381 4.1c0 .2.8 1 1.8 1.7 1.5 1.3 1.6 1.2.3-.4s-2.1-2.1-2.1-1.3zm387.8 31.3c.6.2 1.8.2 2.5 0 .6-.3.1-.5-1.3-.5-1.4 0-1.9.2-1.2.5z"
        />
        <path
          fill="#FF4000"
          fill-opacity=".2"
          d="M3.3 44.7c1.5.2 3.7.2 5 0 1.2-.2 0-.4-2.8-.4-2.7 0-3.8.2-2.2.4zm248 316c.9.2 2.3.2 3 0 .6-.3-.1-.5-1.8-.5-1.6 0-2.2.2-1.2.5zm227.5 6c.6.2 1.8.2 2.5 0 .6-.3.1-.5-1.3-.5-1.4 0-1.9.2-1.2.5z"
        />
        <path
          fill="#FF4000"
          fill-opacity=".3"
          d="M316.5 73c1 1.1 2 2 2.3 2 .3 0-.3-.9-1.3-2s-2-2-2.3-2c-.3 0 .3.9 1.3 2zm53.5 67.5c1.9 1.9 3.6 3.5 3.9 3.5.3 0-1-1.6-2.9-3.5s-3.6-3.5-3.9-3.5c-.3 0 1 1.6 2.9 3.5zm-49.2 37.2c.7.3 1.6.2 1.9-.1.4-.3-.2-.6-1.3-.5-1.1 0-1.4.3-.6.6zM93.2 182c0 1.4.2 1.9.5 1.2.2-.6.2-1.8 0-2.5-.3-.6-.5-.1-.5 1.3zm500.7 142.7-2.4 2.8 2.8-2.4c1.5-1.4 2.7-2.6 2.7-2.8 0-.8-.8-.1-3.1 2.4zM441 480.4c0 .2.8 1 1.8 1.7 1.5 1.3 1.6 1.2.3-.4s-2.1-2.1-2.1-1.3z"
        />
        <path
          fill="#FF4000"
          fill-opacity=".4"
          d="M93.2 178c0 1.4.2 1.9.5 1.2.2-.6.2-1.8 0-2.5-.3-.6-.5-.1-.5 1.3zm552 33c0 1.4.2 1.9.5 1.2.2-.6.2-1.8 0-2.5-.3-.6-.5-.1-.5 1.3zm-.1 4.6c0 1.1.3 1.4.6.6.3-.7.2-1.6-.1-1.9-.3-.4-.6.2-.5 1.3zm-190.3 99.1c1.2.2 3 .2 4 0 .9-.3-.1-.5-2.3-.4-2.2 0-3 .2-1.7.4zM438 477.4c0 .2.8 1 1.8 1.7 1.5 1.3 1.6 1.2.3-.4s-2.1-2.1-2.1-1.3zm6 6c0 .2.8 1 1.8 1.7 1.5 1.3 1.6 1.2.3-.4s-2.1-2.1-2.1-1.3zm46 18c0 .2.8 1 1.8 1.7 1.5 1.3 1.6 1.2.3-.4s-2.1-2.1-2.1-1.3z"
        />
        <path
          fill="#FF4000"
          fill-opacity=".5"
          d="M322.8 67.7c.6.2 1.8.2 2.5 0 .6-.3.1-.5-1.3-.5-1.4 0-1.9.2-1.2.5zm138.5 90c1.5.2 3.7.2 5 0 1.2-.2 0-.4-2.8-.4-2.7 0-3.8.2-2.2.4zM93.2 174c0 1.4.2 1.9.5 1.2.2-.6.2-1.8 0-2.5-.3-.6-.5-.1-.5 1.3zm330.1 50.7c.9.2 2.5.2 3.5 0 .9-.3.1-.5-1.8-.5-1.9 0-2.7.2-1.7.5zM192.2 270c0 1.4.2 1.9.5 1.2.2-.6.2-1.8 0-2.5-.3-.6-.5-.1-.5 1.3zm257.6 44.7c.6.2 1.8.2 2.5 0 .6-.3.1-.5-1.3-.5-1.4 0-1.9.2-1.2.5zm11 0c.6.2 1.8.2 2.5 0 .6-.3.1-.5-1.3-.5-1.4 0-1.9.2-1.2.5zm55.6 20.5-1.9 2.3 2.3-1.9c1.2-1.1 2.2-2.1 2.2-2.3 0-.8-.8-.2-2.6 1.9zm-5 5-1.9 2.3 2.3-1.9c2.1-1.8 2.7-2.6 1.9-2.6-.2 0-1.2 1-2.3 2.2zM311.8 443.7c.7.3 1.6.2 1.9-.1.4-.3-.2-.6-1.3-.5-1.1 0-1.4.3-.6.6z"
        />
        <path
          fill="#FF4000"
          fill-opacity=".6"
          d="M315.8 67.7c1.2.2 3.2.2 4.5 0 1.2-.2.2-.4-2.3-.4s-3.5.2-2.2.4zm38.7 53.3c-.3.6.1.7.9.4 1.8-.7 2.1-1.4.7-1.4-.6 0-1.3.4-1.6 1zm220.3 17.7c.7.3 1.6.2 1.9-.1.4-.3-.2-.6-1.3-.5-1.1 0-1.4.3-.6.6zm-118 19c.7.3 1.6.2 1.9-.1.4-.3-.2-.6-1.3-.5-1.1 0-1.4.3-.6.6zm12 0c.7.3 1.6.2 1.9-.1.4-.3-.2-.6-1.3-.5-1.1 0-1.4.3-.6.6zM93.2 170c0 1.4.2 1.9.5 1.2.2-.6.2-1.8 0-2.5-.3-.6-.5-.1-.5 1.3zm403.6 22.7c.7.3 1.6.2 1.9-.1.4-.3-.2-.6-1.3-.5-1.1 0-1.4.3-.6.6zm13 0c.7.3 1.6.2 1.9-.1.4-.3-.2-.6-1.3-.5-1.1 0-1.4.3-.6.6zm-33 13c.6.2 1.8.2 2.5 0 .6-.3.1-.5-1.3-.5-1.4 0-1.9.2-1.2.5zM141 311.5c1.3 1.4 2.6 2.5 2.8 2.5.3 0-.5-1.1-1.8-2.5s-2.6-2.5-2.8-2.5c-.3 0 .5 1.1 1.8 2.5zm534 26.7c4.1 4.5 5 5.3 5 4.5 0-.2-2.1-2.3-4.7-4.7l-4.8-4.5 4.5 4.7zm-277.2 22.5c1.2.2 3 .2 4 0 .9-.3-.1-.5-2.3-.4-2.2 0-3 .2-1.7.4zM178 376.3c0 .2 1.5 1.6 3.3 3.3l3.2 2.9-2.9-3.3c-2.8-3-3.6-3.7-3.6-2.9zm223.3 59.4c.9.2 2.3.2 3 0 .6-.3-.1-.5-1.8-.5-1.6 0-2.2.2-1.2.5zm-86.5 8c.7.3 1.6.2 1.9-.1.4-.3-.2-.6-1.3-.5-1.1 0-1.4.3-.6.6zm9 0c.7.3 1.6.2 1.9-.1.4-.3-.2-.6-1.3-.5-1.1 0-1.4.3-.6.6zM470.5 475c1 1.1 2 2 2.3 2 .3 0-.3-.9-1.3-2s-2-2-2.3-2c-.3 0 .3.9 1.3 2zM451 490.5c1.3 1.4 2.6 2.5 2.8 2.5.3 0-.5-1.1-1.8-2.5s-2.6-2.5-2.8-2.5c-.3 0 .5 1.1 1.8 2.5z"
        />
        <path
          fill="#FF4000"
          fill-opacity=".7"
          d="M60 63.5c1.3 1.4 2.6 2.5 2.8 2.5.3 0-.5-1.1-1.8-2.5S58.4 61 58.2 61c-.3 0 .5 1.1 1.8 2.5zm510.3 75.2c.9.2 2.3.2 3 0 .6-.3-.1-.5-1.8-.5-1.6 0-2.2.2-1.2.5zM357 146.3c0 .2 1.5 1.6 3.3 3.3l3.2 2.9-2.9-3.3c-2.8-3-3.6-3.7-3.6-2.9zM93.1 166.6c0 1.1.3 1.4.6.6.3-.7.2-1.6-.1-1.9-.3-.4-.6.2-.5 1.3zm408.2 26.1c1.5.2 3.9.2 5.5 0 1.5-.2.2-.4-2.8-.4s-4.3.2-2.7.4zM269 257.4c0 .2.8 1 1.8 1.7 1.5 1.3 1.6 1.2.3-.4s-2.1-2.1-2.1-1.3zm55.5 9.6c1 1.1 2 2 2.3 2 .3 0-.3-.9-1.3-2s-2-2-2.3-2c-.3 0 .3.9 1.3 2zm289.3 6.7c.7.3 1.6.2 1.9-.1.4-.3-.2-.6-1.3-.5-1.1 0-1.4.3-.6.6zm-151 20c.7.3 1.6.2 1.9-.1.4-.3-.2-.6-1.3-.5-1.1 0-1.4.3-.6.6zm203.5 12c.9.2 2.5.2 3.5 0 .9-.3.1-.5-1.8-.5-1.9 0-2.7.2-1.7.5zm-123.4 2c-1.3 1.6-1.2 1.7.4.4 1.6-1.3 2.1-2.1 1.3-2.1-.2 0-1 .8-1.7 1.7zm-6.5 6.5-1.9 2.3 2.3-1.9c1.2-1.1 2.2-2.1 2.2-2.3 0-.8-.8-.2-2.6 1.9zm-155.6 97.5c.7.3 1.6.2 1.9-.1.4-.3-.2-.6-1.3-.5-1.1 0-1.4.3-.6.6zm17 24c.7.3 1.6.2 1.9-.1.4-.3-.2-.6-1.3-.5-1.1 0-1.4.3-.6.6zm-79.5 8c.9.2 2.5.2 3.5 0 .9-.3.1-.5-1.8-.5-1.9 0-2.7.2-1.7.5zm79.7 9.4c0 .5.5.7 1 .4.6-.3 1-.8 1-1.1 0-.2-.4-.4-1-.4-.5 0-1 .5-1 1.1z"
        />
        <path
          fill="#FF4000"
          fill-opacity=".8"
          d="M131.8.7c.6.2 1.8.2 2.5 0 .6-.3.1-.5-1.3-.5-1.4 0-1.9.2-1.2.5zm14.5 0c.9.2 2.3.2 3 0 .6-.3-.1-.5-1.8-.5-1.6 0-2.2.2-1.2.5zM279.5 59c3.3 3.3 6.2 6 6.4 6 .3 0-2.1-2.7-5.4-6-3.3-3.3-6.2-6-6.4-6-.3 0 2.1 2.7 5.4 6zM324 79.4c0 .2.8 1 1.8 1.7 1.5 1.3 1.6 1.2.3-.4s-2.1-2.1-2.1-1.3zm123.3 55.3c.9.2 2.3.2 3 0 .6-.3-.1-.5-1.8-.5-1.6 0-2.2.2-1.2.5zm5.5 0c.6.2 1.8.2 2.5 0 .6-.3.1-.5-1.3-.5-1.4 0-1.9.2-1.2.5zm-98.3 9.3c1 1.1 2 2 2.3 2 .3 0-.3-.9-1.3-2s-2-2-2.3-2c-.3 0 .3.9 1.3 2zm10 10c1 1.1 2 2 2.3 2 .3 0-.3-.9-1.3-2s-2-2-2.3-2c-.3 0 .3.9 1.3 2zm258.5 4.4c0 .2.8 1 1.8 1.7 1.5 1.3 1.6 1.2.3-.4s-2.1-2.1-2.1-1.3zm-529.9 5.2c0 1.1.3 1.4.6.6.3-.7.2-1.6-.1-1.9-.3-.4-.6.2-.5 1.3zm206.3 21.6-1.9 2.3 2.3-1.9c2.1-1.8 2.7-2.6 1.9-2.6-.2 0-1.2 1-2.3 2.2zm329.6 6.3c1.3 1.4 2.6 2.5 2.8 2.5.3 0-.5-1.1-1.8-2.5s-2.6-2.5-2.8-2.5c-.3 0 .5 1.1 1.8 2.5zm-67.2 45.2c.6.2 1.8.2 2.5 0 .6-.3.1-.5-1.3-.5-1.4 0-1.9.2-1.2.5zm6 0c.6.2 1.8.2 2.5 0 .6-.3.1-.5-1.3-.5-1.4 0-1.9.2-1.2.5zm-339.5 2c.9.2 2.3.2 3 0 .6-.3-.1-.5-1.8-.5-1.6 0-2.2.2-1.2.5zm362 15c1.5.2 3.7.2 5 0 1.2-.2 0-.4-2.8-.4-2.7 0-3.8.2-2.2.4zm-324.3.7c0 .2.8 1 1.8 1.7 1.5 1.3 1.6 1.2.3-.4s-2.1-2.1-2.1-1.3zm6 6c0 .2.8 1 1.8 1.7 1.5 1.3 1.6 1.2.3-.4s-2.1-2.1-2.1-1.3zm55 9c0 .2.8 1 1.8 1.7 1.5 1.3 1.6 1.2.3-.4s-2.1-2.1-2.1-1.3zm289.8 4.3c.7.3 1.6.2 1.9-.1.4-.3-.2-.6-1.3-.5-1.1 0-1.4.3-.6.6zm9 0c.7.3 1.6.2 1.9-.1.4-.3-.2-.6-1.3-.5-1.1 0-1.4.3-.6.6zm-174 20c.6.2 1.8.2 2.5 0 .6-.3.1-.5-1.3-.5-1.4 0-1.9.2-1.2.5zm6.5 0c.9.2 2.3.2 3 0 .6-.3-.1-.5-1.8-.5-1.6 0-2.2.2-1.2.5zm81.6 17c-1.3 1.6-1.2 1.7.4.4 1.6-1.3 2.1-2.1 1.3-2.1-.2 0-1 .8-1.7 1.7zM326 323.4c0 .2.8 1 1.8 1.7 1.5 1.3 1.6 1.2.3-.4s-2.1-2.1-2.1-1.3zM218.5 327c1 1.1 2 2 2.3 2 .3 0-.3-.9-1.3-2s-2-2-2.3-2c-.3 0 .3.9 1.3 2zm305.4.7c-1.3 1.6-1.2 1.7.4.4.9-.7 1.7-1.5 1.7-1.7 0-.8-.8-.3-2.1 1.3zm-271.1 53c1.2.2 3.2.2 4.5 0 1.2-.2.2-.4-2.3-.4s-3.5.2-2.2.4zm124 31c.6.2 1.8.2 2.5 0 .6-.3.1-.5-1.3-.5-1.4 0-1.9.2-1.2.5zm24 41c.6.2 1.8.2 2.5 0 .6-.3.1-.5-1.3-.5-1.4 0-1.9.2-1.2.5zm9 0c.6.2 1.8.2 2.5 0 .6-.3.1-.5-1.3-.5-1.4 0-1.9.2-1.2.5z"
        />
        <path
          fill="#FF4000"
          fill-opacity=".9"
          d="M137.3.7c1.5.2 3.9.2 5.5 0 1.5-.2.2-.4-2.8-.4s-4.3.2-2.7.4zM88.5 33c1 1.1 2 2 2.3 2 .3 0-.3-.9-1.3-2s-2-2-2.3-2c-.3 0 .3.9 1.3 2zM319 74.2c4.1 4.5 5 5.3 5 4.5 0-.2-2.1-2.3-4.7-4.7l-4.8-4.5 4.5 4.7zm-27-1.8c0 .2.8 1 1.8 1.7 1.5 1.3 1.6 1.2.3-.4s-2.1-2.1-2.1-1.3zm8 9c0 .2.8 1 1.8 1.7 1.5 1.3 1.6 1.2.3-.4s-2.1-2.1-2.1-1.3zm31 4c0 .2.8 1 1.8 1.7 1.5 1.3 1.6 1.2.3-.4s-2.1-2.1-2.1-1.3zm-13 17c0 .2.8 1 1.8 1.7 1.5 1.3 1.6 1.2.3-.4s-2.1-2.1-2.1-1.3zm52.5 37.6c3.3 3.3 6.2 6 6.4 6 .3 0-2.1-2.7-5.4-6-3.3-3.3-6.2-6-6.4-6-.3 0 2.1 2.7 5.4 6zm-20.5-.5c1.3 1.4 2.6 2.5 2.8 2.5.3 0-.5-1.1-1.8-2.5s-2.6-2.5-2.8-2.5c-.3 0 .5 1.1 1.8 2.5zm18.5 18.5c1 1.1 2 2 2.3 2 .3 0-.3-.9-1.3-2s-2-2-2.3-2c-.3 0 .3.9 1.3 2zm-275.4 2.6c0 1.1.3 1.4.6.6.3-.7.2-1.6-.1-1.9-.3-.4-.6.2-.5 1.3zm1 32c0 1.1.3 1.4.6.6.3-.7.2-1.6-.1-1.9-.3-.4-.6.2-.5 1.3zm267.9 3.8c0 .2.8 1 1.8 1.7 1.5 1.3 1.6 1.2.3-.4s-2.1-2.1-2.1-1.3zm7 6c0 .2.8 1 1.8 1.7 1.5 1.3 1.6 1.2.3-.4s-2.1-2.1-2.1-1.3zm228.8 51.3c.7.3 1.6.2 1.9-.1.4-.3-.2-.6-1.3-.5-1.1 0-1.4.3-.6.6zM318 260.4c0 .2.8 1 1.8 1.7 1.5 1.3 1.6 1.2.3-.4s-2.1-2.1-2.1-1.3zm-41.5 4.6c1 1.1 2 2 2.3 2 .3 0-.3-.9-1.3-2s-2-2-2.3-2c-.3 0 .3.9 1.3 2zm6.5 7.4c0 .2.8 1 1.8 1.7 1.5 1.3 1.6 1.2.3-.4s-2.1-2.1-2.1-1.3zm337.3 1.3c.9.2 2.5.2 3.5 0 .9-.3.1-.5-1.8-.5-1.9 0-2.7.2-1.7.5zM134 303.4c0 .2.8 1 1.8 1.7 1.5 1.3 1.6 1.2.3-.4s-2.1-2.1-2.1-1.3zm474.4 4.8-1.9 2.3 2.3-1.9c2.1-1.8 2.7-2.6 1.9-2.6-.2 0-1.2 1-2.3 2.2zM147 316.4c0 .2.8 1 1.8 1.7 1.5 1.3 1.6 1.2.3-.4s-2.1-2.1-2.1-1.3zm447 7.3-6.5 6.8 6.8-6.5c6.2-6 7.2-7 6.4-7-.1 0-3.2 3-6.7 6.7zm-66.6.5-1.9 2.3 2.3-1.9c1.2-1.1 2.2-2.1 2.2-2.3 0-.8-.8-.2-2.6 1.9zm186.6 4.3c3.5 3.6 6.7 6.5 6.9 6.5.3 0-2.4-2.9-5.9-6.5-3.5-3.6-6.7-6.5-6.9-6.5-.3 0 2.4 2.9 5.9 6.5zm-382 1c1.9 1.9 3.6 3.5 3.9 3.5.3 0-1-1.6-2.9-3.5s-3.6-3.5-3.9-3.5c-.3 0 1 1.6 2.9 3.5zm-108 2.9c0 .2.8 1 1.8 1.7 1.5 1.3 1.6 1.2.3-.4s-2.1-2.1-2.1-1.3zM173.5 371c1 1.1 2 2 2.3 2 .3 0-.3-.9-1.3-2s-2-2-2.3-2c-.3 0 .3.9 1.3 2zm75.3 9.7c.7.3 1.6.2 1.9-.1.4-.3-.2-.6-1.3-.5-1.1 0-1.4.3-.6.6zm11 0c.7.3 1.6.2 1.9-.1.4-.3-.2-.6-1.3-.5-1.1 0-1.4.3-.6.6zm-71.3 5.3c1 1.1 2 2 2.3 2 .3 0-.3-.9-1.3-2s-2-2-2.3-2c-.3 0 .3.9 1.3 2zm185.3 25.7c.7.3 1.6.2 1.9-.1.4-.3-.2-.6-1.3-.5-1.1 0-1.4.3-.6.6zm31.5 41c.9.2 2.3.2 3 0 .6-.3-.1-.5-1.8-.5-1.6 0-2.2.2-1.2.5zm37.2 28.3c1 1.1 2 2 2.3 2 .3 0-.3-.9-1.3-2s-2-2-2.3-2c-.3 0 .3.9 1.3 2zm53.3 30.7c.7.3 1.6.2 1.9-.1.4-.3-.2-.6-1.3-.5-1.1 0-1.4.3-.6.6z"
        />
        <g fill="#FF4000" stroke-width="0">
          <path d="M109 2.6C71.8 7.8 30.2 23 6.5 39.9l-4.9 3.6 13.4.6c15.8.8 24.2 3.2 34.5 9.9 10.4 6.7 21.1 19.3 27.7 32.5 6 11.8 12.3 34.4 14.8 53 .5 4.4 1.5 20.1 2 35 1.3 37.4 3.5 52.7 10.6 74.5 15.5 47.5 48.8 81.6 98.7 100.8 24 9.3 48.8 12.2 69.2 8.3 4.5-.9 4.3-1-7.5-4.1-30.3-7.8-53.1-27.9-66.2-58.1-9.2-21.5-9-34.9.8-45.8 11.7-13 33-15.4 52.3-5.9 7.1 3.4 10.2 5.8 19.1 14.7 5.8 5.8 20.7 22.7 33.2 37.6 30.6 36.6 40.3 45.7 58.5 54.9 12.8 6.4 20.7 8.1 37.3 8 16.3 0 26.6-1.9 44.5-7.8 19.1-6.4 35.9-16 56-32 13.6-10.9 13.1-10.4 11.9-11.6-.6-.6-2.7-.4-5.9.6-14.5 4.3-27.4 5.8-50.5 5.8-25 0-38.1-1.5-58-6.5-42.6-11-78.2-37.3-95.4-70.9-13-25.3-13.5-43.1-1.5-53.3 10.4-9 30-8.9 45.4.2 2.8 1.7 11 8.1 18.4 14.4 20.8 17.9 34.9 24.2 56.1 25.4 17.3.9 34.5-3.5 52.5-13.4l6.8-3.8-11.1-1.2c-14.2-1.5-24.1-3.5-35.5-7.4-34.8-11.6-61.6-32.5-101-78.7C288.9 67.6 274 51.9 256 37.8 232.7 19.7 211.4 10 182.5 4.4c-12.4-2.4-16.8-2.7-38.5-3-17.7-.2-27.4.1-35 1.2zM129 27c0 4.9-5 10.8-11.2 13.5-4.7 1.9-13.5 2-17.9.1-4-1.7-12.9-8.3-12.9-9.6 0-1.7 24.2-5.7 35.8-5.9 5.6-.1 6.2.1 6.2 1.9zm186 41.7c0 1.8 19.9 20.1 30.5 28 23.6 17.7 47.5 28.8 74.1 34.4 14.3 3.1 44.2 3.4 54.1.7 6.1-1.7 21-8.3 16.3-7.3-1.4.4-8.4.9-15.6 1.2-23.8 1-32.5-2.4-61.4-24.3-25.2-19-38.7-25.6-62.3-30.5-11.6-2.3-35.7-3.8-35.7-2.2z" />
          <path d="M357.1 124.2c4.6 6.8 27.6 28.5 36.5 34.5 30.8 21 72 33.3 110.7 33.3 21.7 0 38.9-2.9 62.7-10.6 13.4-4.3 28.9-5.6 38.9-3.4 13.9 3.1 26.8 13.6 34.9 28.5l4.3 8-.5-8.1c-.8-11.2-2.8-18.3-8.3-29.4-11.1-22.6-33.6-36.5-61.3-37.7-14-.6-21.5.6-47.7 8.1-36.3 10.3-58.4 12.7-85.6 9.1-27.7-3.6-56.8-15-79.4-31.1-3.4-2.4-6.4-4.4-6.8-4.4-.3 0 .4 1.5 1.6 3.2zM544 238.4c-22.3 4-41.4 12-67 28.1-6.9 4.3-15.3 9.1-18.8 10.7-14.1 6.4-31.9 8.4-49.9 5.4-4.5-.7-8-1-7.8-.6.3.4 3.5 2 7.2 3.5 11.3 4.5 23.9 6.6 43.8 7.2 15.4.4 19.7.2 30-1.5 20-3.5 37.9-10.5 57.4-22.6 9.4-5.8 19.6-10 30.8-12.8 11.2-2.7 33.2-2.9 46.8-.5 14.1 2.6 14.5 2.2 3.7-4-8.7-5-17.9-8.9-27.2-11.4-9.7-2.7-37.6-3.5-49-1.5zm54.5 37.3c-15.1 3.2-29.8 10.9-44.9 23.4-5 4.2-17.5 16.4-27.9 27.2-23.8 24.9-28.8 28.6-50.7 38.6-2 .9.1 1 9.8.6 29.9-1.4 51.9-6.2 72.8-16 16.4-7.7 23.2-13 46.9-37 27.1-27.4 26.5-27.1 47.3-26 7.3.3 14.1.9 15 1.2 1 .3.7-.3-.8-1.6-4.5-3.8-16.3-9-23.8-10.6-9.6-2-34.2-1.9-43.7.2zm55.8 31.7c-2.8.7-9.1 3.2-14 5.6l-8.8 4.3 7.2 1.2c15.7 2.8 24.3 7.3 37.3 19.9 4.8 4.6 11.1 10 14.1 11.9 14.6 9.6 34.9 11 50.8 3.6 3.5-1.6 6.1-3.2 5.8-3.5-.3-.4-4-2.1-8.2-3.9-9.2-4-10.9-5.3-25.7-19.2-12.5-11.8-20.8-17-31.4-19.8-6.9-1.8-19.8-1.8-27.1-.1zm-493.6 46.5c27.9 40 81.8 76.3 128.1 86.2 6.4 1.3 15.2 2.2 25.7 2.6 14.2.4 18.6.2 38.5-2.6 37.1-5 50.3-5.8 64.4-3.7 6.5.9 17.6 3.2 24.7 5 7.1 1.8 12.9 3.1 12.9 2.8 0-3.8-14-15-26.5-21.2-15.4-7.6-26.9-9.9-60-12-23.8-1.5-37.9-5.2-44.2-11.6-2.8-2.7-3.3-3.9-3.3-8.2 0-3.8.5-5.5 2.3-7.4 2.6-2.8 10.2-5.9 19.2-7.8 3.3-.7 6.4-1.6 6.8-2 1.3-1.1-10.9-5.9-18.2-7.1-8.1-1.4-18.3.3-30.8 5.1-29.5 11.2-57.8 11.5-90.2.9-12.3-4-20.9-8-38.4-17.8-8-4.5-14.8-8.1-15.2-8.1-.3 0 1.5 3.1 4.2 6.9zm246.6 102.5c15.8 7 28.2 16.2 41.2 30.4 12.9 14.1 32.5 24.2 46.8 24.2h6l-3.9-2.8c-5.2-3.8-10.8-10.2-13.3-15-3.5-6.8-13.6-18.6-20.2-23.7-14.2-10.7-28.9-15.4-50.4-16.2l-14-.4 7.8 3.5z" />
        </g>
      </svg>