
<svg version="1.1" id="Layer_1" xmlns="http://www.w3.org/2000/svg" xmlns:xlink="http://www.w3.org/1999/xlink" x="0px" y="0px"
	 width="100%" viewBox="0 0 483 472" enable-background="new 0 0 483 472" xml:space="preserve">
<path fill="#000000" opacity="1.000000" stroke="none" 
	d="
M257.000000,473.000000 
	C172.666672,473.000000 88.833298,472.973206 5.000141,473.095947 
	C1.575832,473.100952 0.902806,472.423676 0.905227,468.999939 
	C1.014593,314.333344 1.014593,159.666656 0.905227,5.000067 
	C0.902806,1.576326 1.576338,0.902903 5.000065,0.905260 
	C163.333313,1.014259 321.666656,1.014259 479.999939,0.905260 
	C483.423676,0.902903 484.097168,1.576326 484.094757,5.000067 
	C483.985382,159.666656 483.985413,314.333344 484.094788,468.999939 
	C484.097198,472.423676 483.424347,473.102112 479.999847,473.096283 
	C405.833405,472.969788 331.666656,473.000000 257.000000,473.000000 
z"/>
<path fill="#787878" opacity="1.000000" stroke="none" 
	d="
M202.999283,221.321198 
	C193.511398,221.290512 184.519501,221.091965 175.537186,221.302643 
	C171.249680,221.403198 169.353836,219.748596 169.343765,215.557709 
	C169.262604,181.779114 169.155762,148.000595 169.081955,114.221977 
	C169.078690,112.729996 169.352051,111.239403 169.440170,109.744835 
	C169.687958,105.542419 171.654587,103.629303 176.100494,103.643028 
	C194.395523,103.699493 212.691269,103.456131 230.986832,103.442673 
	C242.134491,103.434471 253.282700,103.748009 264.429901,103.707764 
	C269.185150,103.690605 270.881683,105.833527 270.874542,110.402771 
	C270.819824,145.359497 270.874786,180.316360 270.894592,215.273193 
	C270.897034,219.604355 268.920502,221.405823 264.413391,221.371780 
	C244.109695,221.218491 223.804108,221.314941 202.999283,221.321198 
z"/>
<path fill="#767676" opacity="1.000000" stroke="none" 
	d="
M220.997147,242.679062 
	C235.648270,242.751083 249.799850,242.840225 263.951599,242.876526 
	C269.538147,242.890854 270.733276,243.915344 270.740967,249.506668 
	C270.788940,284.310547 270.761841,319.114594 270.854645,353.918335 
	C270.866852,358.495575 269.096100,360.639282 264.392120,360.630890 
	C234.757187,360.578156 205.122025,360.603699 175.487030,360.647888 
	C171.056686,360.654480 169.242813,358.539795 169.239212,354.194305 
	C169.212311,321.729492 169.010986,289.264587 169.076492,256.800110 
	C169.103714,243.310684 169.334732,243.107132 182.539551,242.800278 
	C195.186417,242.506409 207.844513,242.697235 220.997147,242.679062 
z"/>
<path fill="#940B09" opacity="1.000000" stroke="none" 
	d="
M408.999634,74.623993 
	C416.625397,81.850739 419.083221,91.056717 419.752899,100.824051 
	C421.597961,127.735725 420.584930,154.700409 421.011627,181.639465 
	C421.135559,189.462921 422.096313,197.163284 424.637634,204.614075 
	C427.349518,212.564850 431.955627,218.767731 440.411499,221.138870 
	C443.714752,222.065170 444.962006,223.904526 444.850494,227.249680 
	C444.689728,232.071457 444.776611,236.904282 444.865814,241.730408 
	C444.911011,244.174973 444.114746,245.890991 441.687622,246.738983 
	C427.372406,251.740433 423.155548,263.778442 421.985962,276.960052 
	C419.629852,303.514832 421.451385,330.194702 420.587524,356.804321 
	C420.153992,370.157990 419.266724,383.513275 409.430542,394.445007 
	C407.977051,394.477783 407.568085,393.574158 407.441681,392.577942 
	C406.789703,387.439240 403.943970,383.182770 401.763275,378.234253 
	C401.546265,377.610443 401.461792,377.358093 401.229858,376.730865 
	C400.862885,375.850464 400.619629,375.356628 400.139343,374.496124 
	C399.843109,373.836639 399.761749,373.554657 399.680908,372.831726 
	C400.202820,371.072784 400.464752,369.648071 401.623047,368.197266 
	C405.383057,366.043365 406.644806,368.141144 407.837494,370.919769 
	C408.770782,373.094025 408.916870,376.859619 411.733429,376.601288 
	C414.438538,376.353119 413.783173,372.519012 414.673035,370.312256 
	C415.612457,367.982513 415.494507,365.405914 415.498352,362.902924 
	C415.526459,344.587219 414.813751,326.236053 415.828796,307.967499 
	C416.591553,294.240173 415.928558,280.323029 419.143341,266.790741 
	C421.431152,257.160583 426.966949,249.667068 434.891510,243.811172 
	C440.908447,239.364899 441.308105,230.731628 435.855988,225.635406 
	C434.760345,224.611313 433.645386,223.596069 432.403076,222.757843 
	C422.066711,215.783493 418.737213,205.286407 417.488007,193.620422 
	C416.029266,179.998062 417.250214,166.302216 416.343323,152.707260 
	C415.276855,136.720398 415.735413,120.753532 415.508270,104.779137 
	C415.448120,100.547859 414.167511,96.578568 413.355896,92.505463 
	C413.192291,91.684319 412.908264,90.730965 411.998138,90.588692 
	C410.793610,90.400368 410.107666,91.445740 409.896393,92.356918 
	C408.095856,100.121185 402.531586,105.591125 398.196106,111.810486 
	C397.422089,112.920853 396.804047,114.192940 396.825775,115.519524 
	C396.964417,123.992714 395.310577,132.378082 396.072235,140.912140 
	C397.139069,152.865082 396.442474,164.880951 396.452606,176.868103 
	C396.460938,186.726685 396.833588,196.406891 400.419128,205.838150 
	C403.504364,213.953445 407.872498,221.108215 414.242065,226.858734 
	C420.949280,232.914062 421.313660,235.884064 414.619904,241.565414 
	C403.091034,251.350616 397.557953,264.318665 396.785156,278.831482 
	C395.981140,293.930389 394.843872,309.073486 395.489258,324.238098 
	C395.878082,333.375092 397.060577,342.483429 396.336487,351.663910 
	C396.130310,354.277618 397.683105,356.396942 399.003937,358.536163 
	C400.108856,360.325745 401.790985,362.015320 400.308685,364.782471 
	C399.679749,365.552887 399.207733,365.840057 398.233734,365.974701 
	C397.556427,365.879822 397.295868,365.797363 396.659241,365.565369 
	C394.601349,363.503082 392.467285,361.945221 391.447815,359.049316 
	C391.291901,334.366730 391.097351,310.047089 391.322021,285.731354 
	C391.400391,277.248688 393.052307,268.875214 395.692413,260.751221 
	C398.820099,251.126846 404.432098,243.234009 412.427887,237.105057 
	C415.005707,235.129105 415.764343,233.515533 412.835876,231.364609 
	C398.076935,220.524384 392.313141,204.899811 391.706787,187.635910 
	C390.800873,161.844757 391.256104,136.005798 391.177734,109.738976 
	C392.581451,106.426956 394.270935,103.799095 396.218536,101.273972 
	C401.153870,94.875229 404.217712,87.625648 405.489319,79.615791 
	C405.812958,77.577217 405.751129,75.147545 408.999634,74.623993 
z"/>
<path fill="#BB7E08" opacity="1.000000" stroke="none" 
	d="
M80.951401,73.404114 
	C81.146736,72.812263 81.218216,72.577019 81.455475,72.001480 
	C91.612518,61.706612 104.351120,58.381275 117.766937,56.839409 
	C127.013672,55.776699 127.026955,55.892822 127.243385,65.083176 
	C127.266869,66.080536 127.279091,67.078369 127.318069,68.075142 
	C127.742844,78.938179 127.740837,78.925499 117.456573,81.517647 
	C108.724442,83.718575 103.354294,89.329704 101.256660,97.988976 
	C100.438194,101.367744 100.132172,104.870651 99.483772,108.748245 
	C97.666397,110.495781 96.682549,109.119209 95.589409,108.158676 
	C86.643990,100.298424 81.845718,90.235878 79.988136,78.638702 
	C79.719986,76.964600 80.455139,75.372749 80.951401,73.404114 
z"/>
<path fill="#BA7D08" opacity="1.000000" stroke="none" 
	d="
M409.291565,74.287933 
	C407.480530,81.761459 406.777283,89.248001 402.882629,95.829895 
	C399.909058,100.855247 396.662170,105.565414 391.531311,109.145523 
	C390.884979,107.328445 390.563995,105.362976 390.205933,103.404289 
	C387.579620,89.037918 381.584381,83.287148 367.186310,81.737114 
	C364.318909,81.428429 363.047546,80.634209 363.154633,77.560478 
	C363.351013,71.922028 363.276276,66.270905 363.184906,60.627167 
	C363.145721,58.208019 363.701813,56.896408 366.526459,57.175209 
	C380.331146,58.537762 393.939697,60.404594 405.219055,69.628197 
	C406.772491,70.898514 408.355652,72.072403 409.291565,74.287933 
z"/>
<path fill="#BB7E08" opacity="1.000000" stroke="none" 
	d="
M99.281723,357.861877 
	C100.067673,361.601868 100.479233,365.092438 101.357224,368.461395 
	C104.040192,378.756317 109.946518,384.227936 120.563263,385.097595 
	C125.916115,385.536041 127.795494,387.510376 127.319923,392.621765 
	C127.043549,395.592163 127.226959,398.608490 127.257355,401.603638 
	C127.341675,409.912323 127.320190,410.334778 119.207901,409.708344 
	C105.367561,408.639679 92.408501,404.873535 81.666504,394.760071 
	C78.835487,389.557922 81.285278,384.710846 81.649368,379.419678 
	C81.626549,378.744507 81.602592,378.477234 81.551979,377.808807 
	C83.040642,374.351349 86.256081,372.362213 87.021729,368.437256 
	C87.141289,367.857391 87.177940,367.623535 87.363388,367.070618 
	C88.455093,365.702148 90.238899,365.265259 90.002228,363.003479 
	C90.073952,362.431976 90.134628,362.205475 90.370331,361.673431 
	C90.713081,361.208374 90.880806,361.048889 91.552795,360.427124 
	C92.222572,359.810486 92.388069,359.656097 93.055672,359.045685 
	C93.732422,358.444977 93.907074,358.300262 94.354340,357.950073 
	C94.987762,357.454681 95.394684,357.257050 96.183807,357.109375 
	C97.433670,357.009460 98.370102,356.776398 99.281723,357.861877 
z"/>
<path fill="#797979" opacity="1.000000" stroke="none" 
	d="
M318.974457,257.000000 
	C318.971954,272.152161 318.854340,286.805878 319.050293,301.455383 
	C319.098145,305.032501 318.303101,306.483795 314.464478,306.368683 
	C305.816620,306.109314 297.156647,306.274323 288.502350,306.189545 
	C287.032501,306.175140 284.972626,306.948456 284.899414,304.138916 
	C284.817810,301.006226 287.092438,301.830597 288.725037,301.812286 
	C295.549133,301.735565 302.377167,301.636108 309.197937,301.795319 
	C312.660645,301.876129 314.185883,301.046509 314.166779,297.097168 
	C314.005798,263.805267 314.059845,230.512344 314.053680,197.219711 
	C314.052094,188.731705 313.933502,180.240509 314.138336,171.757278 
	C314.221069,168.331070 313.240356,167.093826 309.656158,167.235306 
	C302.675232,167.510880 295.675537,167.338089 288.683899,167.297943 
	C286.925446,167.287842 284.878082,167.651520 284.914825,164.734558 
	C284.953979,161.627350 287.199127,162.468475 288.841553,162.446518 
	C297.159180,162.335251 305.484314,162.481949 313.793671,162.178787 
	C317.954681,162.026978 319.111694,163.436676 319.086365,167.588837 
	C318.905396,197.225006 318.980835,226.862762 318.974457,257.000000 
z"/>
<path fill="#8C0E0B" opacity="1.000000" stroke="none" 
	d="
M80.758728,73.158241 
	C81.732063,76.788200 82.199852,80.574135 83.082077,84.260887 
	C85.475677,94.263512 90.408920,102.715492 99.082184,109.059555 
	C100.382385,126.480782 99.840668,143.795731 99.511131,161.093994 
	C99.264885,174.020782 100.116943,187.062439 96.953911,199.817337 
	C94.972565,207.807114 91.976540,215.303543 85.965256,221.754028 
	C82.392319,218.868073 85.183022,216.457214 86.301674,214.190689 
	C90.552574,205.577789 93.784729,196.633362 94.261871,187.033310 
	C94.732590,177.562286 95.783218,168.123764 95.569962,158.600586 
	C95.297676,146.441010 95.382690,134.269028 95.554619,122.105957 
	C95.639618,116.093254 93.904640,111.048698 89.707603,106.705635 
	C85.997314,102.866226 82.599174,98.775269 81.393646,93.305550 
	C81.087723,91.917503 80.543236,89.952156 78.779808,90.076782 
	C76.630783,90.228668 76.961525,92.471863 76.527870,94.002205 
	C74.364334,101.637276 74.405243,109.449425 74.468727,117.290131 
	C74.568565,129.621597 75.025612,141.983307 74.353958,154.279114 
	C73.593452,168.201614 74.735291,182.212631 72.396187,196.056717 
	C70.419304,207.756897 65.431892,217.473434 54.830338,223.732208 
	C48.869408,227.251312 48.739883,238.298462 54.445606,242.795731 
	C56.173748,244.157883 58.922592,244.841034 57.532799,248.544189 
	C48.466457,246.988449 44.231407,242.083557 46.092499,232.997238 
	C46.354271,231.719193 46.293087,230.311401 46.084007,229.011520 
	C45.192501,223.468948 47.461380,220.538818 52.882252,218.893341 
	C58.618263,217.152191 62.096046,212.299423 64.408119,207.088608 
	C67.170357,200.863281 68.940887,194.243332 68.987991,187.315674 
	C69.136368,165.495331 68.921021,143.665146 69.533478,121.858063 
	C69.904816,108.636383 69.437729,95.175240 74.793259,82.538162 
	C76.233803,79.139000 77.958580,75.993439 80.758728,73.158241 
z"/>
<path fill="#8C0E0B" opacity="1.000000" stroke="none" 
	d="
M83.913544,377.727539 
	C83.019753,383.254211 81.722710,388.397369 81.541504,394.115234 
	C74.120544,385.159149 70.709030,374.415558 70.183937,362.746094 
	C69.123566,339.181061 69.081161,315.592773 69.196861,292.012299 
	C69.254326,280.300690 68.751007,268.789856 64.184669,257.135925 
	C68.917130,255.170898 69.139938,259.233643 70.121269,261.599152 
	C72.563560,267.486328 73.212982,273.838318 73.442497,280.157928 
	C74.371742,305.744202 74.829300,331.341553 74.444298,356.943665 
	C74.357803,362.695038 75.929001,368.118958 76.725967,373.697235 
	C77.401497,378.425598 81.430153,376.052338 83.913544,377.727539 
z"/>
<path fill="#AD7619" opacity="1.000000" stroke="none" 
	d="
M404.071106,375.382660 
	C407.857513,381.070435 407.917419,387.599915 409.114746,394.244995 
	C403.303680,401.838440 395.427246,405.840851 386.697906,408.285583 
	C380.302063,410.076813 373.702637,410.754272 367.076263,411.274170 
	C363.842804,411.527832 363.055084,410.349854 363.143646,407.371704 
	C363.311340,401.731537 363.160431,396.082275 363.169067,390.436829 
	C363.171539,388.830872 362.823883,387.327606 365.361328,386.837646 
	C385.110931,383.024017 388.249817,379.615479 391.208496,359.105347 
	C393.767609,359.447327 395.160706,361.485748 396.970612,363.496338 
	C393.745331,365.868652 392.922394,368.816925 393.891846,372.588135 
	C394.554840,375.167023 392.003693,376.251923 390.864624,377.980988 
	C386.462311,384.663666 380.488647,389.084045 372.517944,390.605377 
	C369.540161,391.173737 368.509125,393.181976 368.498779,396.030853 
	C368.474609,402.683167 372.251801,406.568481 378.628693,405.283112 
	C385.614441,403.875000 392.002197,400.556396 398.243286,397.114075 
	C403.941071,393.971405 404.271454,388.933746 403.049500,383.359100 
	C402.729187,381.897766 402.206848,380.480377 402.018921,378.993927 
	C401.824615,377.457367 401.780823,375.935516 404.071106,375.382660 
z"/>
<path fill="#8C0E0B" opacity="1.000000" stroke="none" 
	d="
M99.518661,357.695068 
	C98.817833,358.369080 98.192863,358.571228 97.334534,358.859070 
	C94.969475,358.370239 95.032127,356.783630 95.109108,355.006927 
	C95.959953,335.371246 95.880035,315.707214 95.281799,296.089691 
	C94.894691,283.395569 94.758224,270.435089 89.242172,258.390015 
	C85.639687,250.523453 81.384911,243.312347 73.770798,238.704208 
	C71.399170,237.268875 70.788437,235.511169 71.496437,232.845795 
	C72.730545,228.199783 80.021423,221.628479 85.247650,221.335693 
	C85.586395,221.612457 85.832672,221.845123 85.955704,221.961578 
	C84.571602,225.613693 81.594933,227.800125 78.647797,229.945007 
	C75.834381,231.992584 75.401604,233.723801 78.383636,236.121658 
	C91.040695,246.299194 97.576744,260.039734 98.578888,275.801758 
	C100.301598,302.897278 100.035622,330.071594 99.518661,357.695068 
z"/>
<path fill="#8C0E0B" opacity="1.000000" stroke="none" 
	d="
M63.987404,257.009674 
	C61.677319,254.621536 59.474922,252.136124 57.098831,249.368500 
	C56.925133,249.086304 57.137577,248.858368 57.243824,248.744431 
	C59.354305,246.674515 61.209667,247.335831 62.769012,249.139343 
	C64.443932,251.076508 67.462524,252.696838 64.642525,256.364685 
	C64.310356,256.717682 64.095093,256.912384 63.987404,257.009674 
z"/>
<path fill="#8C0E0B" opacity="1.000000" stroke="none" 
	d="
M81.591599,71.615250 
	C81.621254,71.661179 81.661064,71.762352 81.634277,71.719254 
	C81.607483,71.676155 81.561935,71.569321 81.591599,71.615250 
z"/>
<path fill="#010101" opacity="1.000000" stroke="none" 
	d="
M205.659454,216.776642 
	C196.226898,216.750961 187.238419,216.643539 178.251862,216.731720 
	C175.270432,216.760986 173.921463,216.206879 173.936050,212.657211 
	C174.071304,179.711472 174.056595,146.764481 173.885437,113.818878 
	C173.862900,109.479820 174.846573,107.898117 179.560440,107.941055 
	C207.186157,108.192657 234.815475,108.180931 262.442261,108.025696 
	C266.067993,108.005325 266.019501,109.712006 266.019135,112.238335 
	C266.015564,137.696228 266.064240,163.154114 266.083801,188.612015 
	C266.089935,196.599686 265.912384,204.590759 266.104553,212.573410 
	C266.180878,215.744766 265.518066,216.821075 262.023163,216.786819 
	C243.385269,216.604172 224.744217,216.743332 205.659454,216.776642 
z"/>
<path fill="#020202" opacity="1.000000" stroke="none" 
	d="
M174.082092,303.999084 
	C174.044388,286.020294 174.051224,268.541412 173.920486,251.063538 
	C173.899979,248.322693 174.667404,247.301224 177.555359,247.307709 
	C206.024231,247.371750 234.493637,247.365952 262.962067,247.219421 
	C266.483368,247.201309 266.108948,249.239136 266.109741,251.400223 
	C266.115570,267.209717 266.131958,283.019226 266.111877,298.828705 
	C266.089630,316.302917 265.918335,333.778107 266.079865,351.250427 
	C266.114838,355.030731 264.956390,356.047852 261.299316,356.031555 
	C233.662903,355.908417 206.025345,355.899475 178.389160,356.047394 
	C174.718048,356.067047 173.998123,354.746033 174.028107,351.425720 
	C174.169342,335.784698 174.085129,320.141632 174.082092,303.999084 
z"/>
<path fill="#BF0101" opacity="1.000000" stroke="none" 
	d="
M398.778687,365.646057 
	C398.678345,364.090424 398.735840,362.783783 398.118195,362.229126 
	C392.664368,357.332031 393.394867,351.170135 393.700104,344.714905 
	C394.044464,337.431183 393.291962,330.093323 392.971222,322.781006 
	C392.306030,307.615112 393.359344,292.461823 394.207245,277.365692 
	C395.054779,262.276031 401.312042,249.128525 413.267120,239.145035 
	C418.105164,235.104889 417.786041,233.349915 413.135468,229.468246 
	C405.862579,223.397797 401.093903,215.689316 397.684235,206.744064 
	C393.630402,196.108810 393.690247,185.237152 393.986603,174.295532 
	C394.450745,157.160782 393.055695,140.059647 393.577881,122.903053 
	C393.815002,115.113426 395.033569,108.385551 400.697388,103.228111 
	C405.916016,98.476044 406.670227,91.948288 408.986145,86.007744 
	C409.560303,84.534958 409.254883,82.250847 411.405609,82.148979 
	C413.099915,82.068726 413.692474,83.992256 414.202393,85.325981 
	C416.470428,91.258324 417.869202,97.450134 417.992218,103.776054 
	C418.477692,128.743668 418.629395,153.718216 419.199158,178.683472 
	C419.380463,186.627655 419.971222,194.543045 421.804932,202.423019 
	C424.124542,212.391113 430.193787,218.878708 438.684814,223.516968 
	C441.119629,224.847000 442.073883,226.379410 442.097839,228.958008 
	C442.133392,232.785202 442.182343,236.621841 442.488190,240.433395 
	C442.669342,242.690994 441.618622,243.786011 439.823700,244.682281 
	C425.422058,251.873535 420.866699,264.554565 419.936951,279.566010 
	C418.135773,308.648376 418.147644,337.757660 417.948242,366.871613 
	C417.910828,372.334076 416.147339,377.642639 414.153320,382.770416 
	C413.732330,383.853058 413.380676,385.128326 411.973450,385.209381 
	C410.180756,385.312561 410.016357,383.716309 409.536285,382.521362 
	C408.295288,379.432465 407.057465,376.342102 405.847504,373.240936 
	C405.174591,371.516174 404.578339,369.753174 401.831390,369.158081 
	C400.606293,368.882599 400.061798,368.610718 399.252197,368.191833 
	C398.895172,367.820679 398.783813,367.643982 398.608093,367.162598 
	C398.570343,366.653198 398.596893,366.448486 398.778687,365.646057 
z"/>
<path fill="#BE8002" opacity="1.000000" stroke="none" 
	d="
M404.378357,375.265442 
	C404.979797,379.319855 405.700409,383.238525 406.063171,387.190063 
	C406.772614,394.917755 405.216339,397.623444 398.106384,400.911896 
	C389.080536,405.086548 379.773376,408.404877 369.794189,409.484894 
	C368.251495,409.651855 366.719482,409.854279 365.777985,408.321838 
	C364.979034,407.021423 365.120392,405.690521 366.542633,404.889496 
	C367.794739,404.184326 367.388367,403.890472 366.796478,402.755280 
	C364.808044,398.941803 365.441467,394.767395 366.124146,390.725250 
	C366.499878,388.500549 368.431396,388.265228 370.348724,388.015533 
	C382.108948,386.484131 389.346191,379.706909 391.635376,367.833588 
	C392.200592,364.902100 393.128876,363.137238 396.777222,363.780792 
	C397.131165,363.779053 397.213867,363.821716 397.212769,363.868225 
	C397.829681,367.478210 401.212036,369.305908 402.827087,372.629089 
	C403.103760,372.841125 403.157379,372.918182 403.118927,372.945068 
	C403.458344,373.451965 403.484528,374.062134 403.917358,374.788361 
	C404.148865,374.969238 404.335846,375.144562 404.378357,375.265442 
z"/>
<path fill="#AD7619" opacity="1.000000" stroke="none" 
	d="
M403.041443,372.520172 
	C401.992523,372.123566 400.959015,370.988098 399.755920,370.764160 
	C395.589142,369.988678 395.686584,367.606476 397.126221,364.234619 
	C397.634186,364.209106 398.056671,364.503479 398.706543,364.923096 
	C398.933899,365.048340 398.976624,365.040039 398.963806,365.029236 
	C399.198517,365.238007 399.442383,365.461487 399.826538,365.891052 
	C399.970367,366.093201 399.897125,366.033752 399.867432,366.070404 
	C400.866699,366.603973 401.147095,367.643860 401.777039,368.811584 
	C401.943604,369.072174 401.833191,369.031860 401.805542,369.083862 
	C402.178253,370.156982 402.578674,371.178101 403.041443,372.520172 
z"/>
<path fill="#AD7619" opacity="1.000000" stroke="none" 
	d="
M404.097168,374.679016 
	C403.858002,374.482178 403.567169,373.995087 403.178406,373.239990 
	C403.402130,373.444214 403.723785,373.916504 404.097168,374.679016 
z"/>
<path fill="#BF0101" opacity="1.000000" stroke="none" 
	d="
M64.545654,256.958984 
	C63.243824,253.265564 61.370163,250.468445 57.661354,248.769226 
	C56.522797,247.825073 55.791294,246.877579 54.849159,246.242569 
	C52.591267,244.720764 48.841648,244.787506 48.362007,241.407166 
	C47.568150,235.812347 47.580669,230.131500 48.429619,224.516251 
	C48.638119,223.137146 49.949314,222.316818 51.205997,221.834503 
	C64.655899,216.672592 68.722023,205.316711 69.913429,192.546677 
	C72.557831,164.202713 71.694305,135.749878 71.940155,107.334244 
	C72.006866,99.623726 73.530418,92.186005 76.099617,84.949493 
	C76.589050,83.570930 77.089584,81.875389 78.930321,81.873878 
	C80.859772,81.872299 81.235214,83.672470 81.557030,85.057083 
	C83.642662,94.030594 87.907753,101.711403 94.485367,108.204895 
	C97.188393,110.873344 98.128471,114.377892 98.084122,118.259567 
	C97.823700,141.050064 98.559692,163.850693 97.072006,186.628723 
	C96.259270,199.072601 91.682053,210.205200 85.730476,221.295013 
	C82.417755,224.305374 79.062874,226.812531 76.136284,229.746872 
	C73.546646,232.343353 73.121407,234.925323 76.858536,237.515381 
	C88.458809,245.555023 93.827095,257.745789 95.776802,270.890656 
	C99.798119,298.002441 97.686287,325.411530 97.969299,352.700562 
	C97.988029,354.506409 97.460403,356.317871 97.144043,358.535767 
	C96.887512,359.207031 96.673843,359.469299 96.253387,359.877930 
	C95.796425,360.243744 95.549980,360.467285 95.146881,360.886108 
	C94.986496,361.077301 94.985222,360.986511 95.030624,360.985840 
	C94.811638,361.203369 94.560707,361.436127 94.166565,361.886963 
	C94.009995,362.090637 94.002769,362.006836 94.044670,362.003265 
	C93.814880,362.207062 93.561089,362.434387 93.172516,362.887207 
	C93.019730,363.092560 93.085854,363.039124 93.112534,363.072205 
	C91.553055,364.298737 90.133675,365.633331 89.220062,367.818939 
	C89.053116,368.100433 89.052475,368.031189 89.087082,368.032471 
	C86.295937,370.569397 85.092155,373.911926 84.238052,377.806244 
	C84.070023,378.100433 84.097107,378.048370 84.121094,378.066254 
	C82.451096,378.856964 81.917450,380.432922 81.349190,382.020691 
	C80.924278,383.207886 80.921356,384.939972 79.152023,384.918884 
	C77.594345,384.900299 77.010460,383.395081 76.526527,382.212646 
	C73.667290,375.226318 72.082153,367.897888 71.976532,360.389526 
	C71.756493,344.747162 72.271164,329.086151 71.729485,313.458984 
	C71.251709,299.675720 71.507210,285.845490 69.955818,272.109039 
	C69.353622,266.777069 67.977455,261.658569 64.545654,256.958984 
z"/>
<path fill="#8C0E0B" opacity="1.000000" stroke="none" 
	d="
M84.310349,377.853271 
	C83.685837,373.987549 84.802567,370.548706 88.804695,368.148560 
	C87.598007,371.224548 86.074341,374.415314 84.310349,377.853271 
z"/>
<path fill="#8C0E0B" opacity="1.000000" stroke="none" 
	d="
M89.332184,367.929047 
	C89.207115,365.798157 90.247749,364.127319 92.805710,363.202454 
	C91.963226,364.656097 90.787239,366.206879 89.332184,367.929047 
z"/>
<path fill="#8C0E0B" opacity="1.000000" stroke="none" 
	d="
M95.212502,360.955750 
	C95.189468,360.811676 95.414284,360.566040 95.853775,360.182373 
	C95.843903,360.294281 95.641205,360.564270 95.212502,360.955750 
z"/>
<path fill="#8C0E0B" opacity="1.000000" stroke="none" 
	d="
M94.242622,361.966125 
	C94.235916,361.834320 94.461853,361.578003 94.881905,361.153412 
	C94.875763,361.270630 94.675514,361.556122 94.242622,361.966125 
z"/>
<path fill="#8C0E0B" opacity="1.000000" stroke="none" 
	d="
M93.252991,362.970734 
	C93.249649,362.842773 93.479561,362.593018 93.898026,362.171448 
	C93.886459,362.282776 93.686356,362.565826 93.252991,362.970734 
z"/>
<path fill="#797979" opacity="1.000000" stroke="none" 
	d="
M224.995941,129.870819 
	C212.372574,129.881409 200.249649,129.893677 188.126709,129.892075 
	C186.318314,129.891830 184.267776,130.214218 184.200241,127.417274 
	C184.128769,124.456848 186.328491,124.995918 188.053604,124.994186 
	C209.818512,124.972290 231.583511,124.967789 253.348358,125.012299 
	C254.814392,125.015297 256.816254,124.296753 256.955933,127.085373 
	C257.095398,129.869492 255.259552,129.990158 253.402740,129.990082 
	C244.100616,129.989670 234.798492,129.915955 224.995941,129.870819 
z"/>
<path fill="#747474" opacity="1.000000" stroke="none" 
	d="
M218.999908,153.040329 
	C211.512451,153.065262 204.524460,153.139572 197.537659,153.079071 
	C195.911133,153.065002 193.592026,153.767334 193.681213,150.694901 
	C193.755875,148.122757 195.604645,148.418594 197.237274,148.413239 
	C215.863968,148.352173 234.490723,148.291656 253.117462,148.286530 
	C254.848083,148.286041 257.016296,147.975235 256.951416,150.871246 
	C256.880890,154.018112 254.473862,152.983185 252.923767,152.994904 
	C241.782959,153.079117 230.641235,153.040329 218.999908,153.040329 
z"/>
<path fill="#747474" opacity="1.000000" stroke="none" 
	d="
M240.994659,204.671967 
	C227.000793,204.658310 213.505585,204.649857 200.010376,204.645111 
	C199.010849,204.644760 198.011261,204.666916 197.011826,204.685898 
	C195.229599,204.719757 193.696304,204.597382 193.676468,202.142029 
	C193.654510,199.420090 195.539337,199.877319 197.127792,199.874969 
	C207.621658,199.859421 218.115585,199.869812 228.609467,199.886612 
	C236.772079,199.899689 244.934998,199.902588 253.097000,199.985855 
	C254.747910,200.002716 257.071136,199.245728 257.006195,202.294144 
	C256.943024,205.257965 254.661118,204.537674 252.988724,204.583832 
	C249.158981,204.689514 245.325378,204.655426 240.994659,204.671967 
z"/>
<path fill="#747474" opacity="1.000000" stroke="none" 
	d="
M256.919250,176.944000 
	C256.304779,179.437622 254.516205,178.950790 253.168015,178.953415 
	C234.900742,178.989151 216.633163,178.981003 198.366226,178.880966 
	C196.642563,178.871536 193.937302,179.828934 193.866730,176.573578 
	C193.795746,173.297760 196.467758,174.139954 198.237305,174.131424 
	C216.506516,174.043259 234.776169,174.024460 253.045639,174.043579 
	C254.738968,174.045349 256.979553,173.581467 256.919250,176.944000 
z"/>
<path fill="#707070" opacity="1.000000" stroke="none" 
	d="
M191.311279,176.879425 
	C188.588654,179.583450 184.829346,179.632339 184.298218,177.304291 
	C184.014847,176.062195 183.959137,174.286026 185.697571,174.216187 
	C187.771652,174.132843 190.867462,172.337906 191.311279,176.879425 
z"/>
<path fill="#6C6C6C" opacity="1.000000" stroke="none" 
	d="
M187.135239,148.175537 
	C189.305389,148.231537 191.318802,147.907181 191.555649,150.552475 
	C191.694855,152.107437 191.133377,153.239899 189.413284,153.008987 
	C187.662888,152.774002 185.209000,154.247589 184.364212,151.537079 
	C183.809250,149.756439 184.524612,148.294952 187.135239,148.175537 
z"/>
<path fill="#6A6A6A" opacity="1.000000" stroke="none" 
	d="
M187.997070,204.672699 
	C185.498138,204.682877 183.935699,204.025452 184.343109,201.530914 
	C184.701050,199.339218 186.574265,199.981171 187.919312,199.965240 
	C189.429642,199.947342 191.459076,199.332764 191.579620,201.974838 
	C191.683517,204.252014 190.274063,204.741943 187.997070,204.672699 
z"/>
<path fill="#747474" opacity="1.000000" stroke="none" 
	d="
M238.000198,287.272705 
	C243.492264,287.293915 248.485474,287.248199 253.477325,287.310364 
	C255.085480,287.330383 256.907349,287.161316 256.980713,289.725586 
	C257.053345,292.264465 255.366821,292.292755 253.669739,292.292206 
	C234.690781,292.286194 215.711807,292.251831 196.732849,292.232819 
	C195.126358,292.231232 193.822342,292.134277 193.780594,289.913391 
	C193.732300,287.343628 195.346237,287.409180 197.073227,287.402679 
	C210.549088,287.351990 224.024948,287.299530 238.000198,287.272705 
z"/>
<path fill="#797979" opacity="1.000000" stroke="none" 
	d="
M195.051041,264.025635 
	C214.523727,264.063110 233.504608,264.071442 252.484924,264.179626 
	C254.199783,264.189423 256.868774,263.072479 256.982544,266.428711 
	C257.107910,270.128448 254.182053,269.051575 252.329712,269.059021 
	C231.013062,269.144836 209.695984,269.136932 188.379074,269.110870 
	C186.688095,269.108795 184.399124,269.762726 184.328949,266.830597 
	C184.253098,263.660706 186.636047,264.213074 188.565781,264.152496 
	C190.562927,264.089752 192.561264,264.064880 195.051041,264.025635 
z"/>
<path fill="#7A7A7A" opacity="1.000000" stroke="none" 
	d="
M237.999146,318.067749 
	C224.191360,318.056335 210.883484,318.047302 197.575668,318.014923 
	C195.824432,318.010651 193.750961,318.536774 193.695786,315.597687 
	C193.641678,312.714752 195.576797,313.019745 197.426666,313.024384 
	C215.888290,313.070679 234.349960,313.097992 252.811493,313.167511 
	C254.667770,313.174500 257.054474,312.462402 256.957336,315.806641 
	C256.867676,318.893036 254.566193,318.026459 252.973175,318.060852 
	C248.150711,318.164978 243.324081,318.076385 237.999146,318.067749 
z"/>
<path fill="#7A7A7A" opacity="1.000000" stroke="none" 
	d="
M214.000717,343.884827 
	C208.016495,343.883942 202.531723,343.842163 197.047913,343.897552 
	C195.223969,343.915985 193.699738,343.853241 193.710281,341.427094 
	C193.720764,339.013641 195.261917,338.966827 197.062836,338.967499 
	C215.841049,338.974640 234.619247,338.939697 253.397461,338.931091 
	C255.239380,338.930267 257.142334,338.755463 256.956055,341.663696 
	C256.785858,344.321259 254.981247,343.838013 253.388275,343.840973 
	C240.425720,343.864990 227.463120,343.870605 214.000717,343.884827 
z"/>
<path fill="#717171" opacity="1.000000" stroke="none" 
	d="
M191.068298,288.495026 
	C191.260971,290.080994 191.886032,291.731445 190.108414,292.143433 
	C188.375793,292.545013 186.190079,293.001495 184.870102,291.718933 
	C183.422028,290.311951 183.440521,288.151154 185.819275,287.480316 
	C187.421967,287.028320 189.405823,286.595947 191.068298,288.495026 
z"/>
<path fill="#6F6F6F" opacity="1.000000" stroke="none" 
	d="
M190.952484,313.664551 
	C191.579132,315.374664 192.178848,317.200684 190.454742,317.773102 
	C188.859039,318.302856 186.918152,318.085449 185.188187,317.817169 
	C184.003052,317.633392 184.224365,316.283783 184.253616,315.347900 
	C184.294022,314.054840 184.912521,313.142914 186.330399,313.157196 
	C187.786682,313.171844 189.241837,313.298706 190.952484,313.664551 
z"/>
<path fill="#747474" opacity="1.000000" stroke="none" 
	d="
M190.859222,343.212158 
	C190.148392,343.635651 189.661163,343.879944 189.206970,343.829132 
	C187.322052,343.618103 184.684891,344.922943 184.299210,341.515717 
	C183.965897,338.571228 186.123230,339.135956 187.834366,338.930420 
	C191.066559,338.542206 191.990524,339.945892 190.859222,343.212158 
z"/>
<path fill="#940B09" opacity="1.000000" stroke="none" 
	d="
M401.891968,368.753204 
	C401.298370,368.284210 400.653137,367.496246 399.922821,366.407684 
	C400.909058,366.535339 401.577271,367.310455 401.891968,368.753204 
z"/>
<path fill="#940B09" opacity="1.000000" stroke="none" 
	d="
M399.816620,365.899048 
	C399.702972,365.889618 399.435577,365.686035 399.059601,365.250427 
	C399.210449,365.224335 399.447723,365.453156 399.816620,365.899048 
z"/>
</svg>